<svg width="888" height="450" fill="none" xmlns="http://www.w3.org/2000/svg"><path fill="#fff" d="M0 0H888V450H0z"/><path d="M884.938 0L109.214 448h41.083L888 189.952V0h-3.062z" fill="url(#paint0_linear)"/><path d="M888 189.796L150.042 448h139.579L888 312.823V189.796z" fill="url(#paint1_linear)"/><path d="M482.786 0L54.096 448h55.118L884.938 0H482.786z" fill="url(#paint2_linear)"/><path d="M0 448V0h482.786L54.096 448H0z" fill="url(#paint3_linear)"/><path fill="url(#paint4_linear)" d="M0 0H888V450H0z"/><defs><linearGradient id="paint0_linear" x1="888" y1="157.46" x2="125.449" y2="450.406" gradientUnits="userSpaceOnUse"><stop stop-color="#5AAAFF"/><stop offset="1" stop-color="#60EAFF"/></linearGradient><linearGradient id="paint1_linear" x1="888" y1="273.839" x2="176.215" y2="450.643" gradientUnits="userSpaceOnUse"><stop stop-color="#ADD5FF"/><stop offset="1" stop-color="#B0F6FF"/></linearGradient><linearGradient id="paint2_linear" x1="847.173" x2="75.345" y2="451.174" gradientUnits="userSpaceOnUse"><stop stop-color="#2E8AFF"/><stop offset="1" stop-color="#39EEFF"/></linearGradient><linearGradient id="paint3_linear" x1="418.483" x2="12.325" y2="449.912" gradientUnits="userSpaceOnUse"><stop stop-color="#1D9EFF"/><stop offset="1" stop-color="#26F8FF"/></linearGradient><linearGradient id="paint4_linear" x1="444" x2="444" y2="450" gradientUnits="userSpaceOnUse"><stop stop-color="#fff" stop-opacity="0"/><stop offset=".519" stop-color="#fff" stop-opacity=".2"/><stop offset=".823" stop-color="#fff" stop-opacity=".57"/><stop offset="1" stop-color="#fff"/></linearGradient></defs></svg>