<svg width="256" height="196" xmlns="http://www.w3.org/2000/svg"><g transform="translate(0 1)" fill="none" fill-rule="evenodd"><ellipse fill-opacity=".043" fill="#000" fill-rule="nonzero" cx="127.711" cy="183.905" rx="127.711" ry="9.25"/><path d="M218.035 88.175a1.883 1.883 0 0 1-.341-1.05c0-2.278 4.653-4.125 10.392-4.125 5.74 0 10.392 1.847 10.392 4.125-.011.427-.162.84-.43 1.172 6.39.71 10.697 2.046 10.697 3.578 0 2.278-9.53 4.125-21.285 4.125-11.754 0-21.285-1.847-21.285-4.125 0-1.615 4.833-3.025 11.86-3.7zm-28.359-67.953a1.556 1.556 0 0 1-.278-.857c0-1.86 3.796-3.365 8.476-3.365 4.68 0 8.48 1.5 8.48 3.365a1.59 1.59 0 0 1-.349.955c5.212.582 8.725 1.67 8.725 2.92 0 1.858-7.763 3.365-17.364 3.365-9.6 0-17.366-1.5-17.366-3.365 0-1.325 3.944-2.467 9.676-3.017zM61.79 7.822a1.872 1.872 0 0 1-.56-.95c-.502-2.225 3.64-5.037 9.242-6.282S81.019.135 81.515 2.36c.082.419.025.853-.163 1.237 6.39-.692 10.886-.325 11.219 1.17.5 2.223-8.404 6.095-19.878 8.645s-21.177 2.82-21.673.595c-.353-1.582 4.066-3.997 10.77-6.185z" fill-opacity=".056" fill="#000" fill-rule="nonzero"/><path d="M35.346 174.762a9.238 9.238 0 0 1-.28 2.293c-.712 2.847-2.718 4.93-5.112 5.063h-.25c-2.532 0-4.673-2.18-5.379-5.183a9.238 9.238 0 0 1-.255-2.19c0-4.067 2.521-7.363 5.634-7.363 3.113 0 5.642 3.32 5.642 7.38z" fill="#332E55" fill-rule="nonzero"/><path d="M35.346 174.762a9.238 9.238 0 0 1-.28 2.293h-.251a11.477 11.477 0 0 1-1.843-.25 11.264 11.264 0 0 1-2.93.495h-.436a11.65 11.65 0 0 1-1.542-.103 11.327 11.327 0 0 1-2.422-.6c-.428.143-.865.26-1.307.35a9.238 9.238 0 0 1-.255-2.19c0-4.067 2.521-7.362 5.634-7.362 3.113 0 5.632 3.307 5.632 7.367z" fill="#000" fill-rule="nonzero" opacity=".1"/><path d="M47.366 161.048a11.372 11.372 0 0 0-1.227-5.153l-6.626 2.057 5.817-3.415a11.455 11.455 0 0 0-8.604-4.894c-.273-.413-.571-.807-.894-1.18l-9.516 2.957 7.805-4.582a11.467 11.467 0 0 0-10.646-1.76 11.44 11.44 0 0 0-7.383 7.857l8.15 9.368-8.842-6.386a11.423 11.423 0 0 0-3.588 14.5c2.567 5.053 8.454 7.468 13.838 5.675 2.356.865 4.931.936 7.332.203 3.39.745 6.935-.084 9.642-2.253a11.438 11.438 0 0 0 4.286-8.912c0-.25 0-.5-.025-.75.324-1.081.486-2.204.48-3.332z" fill="#00DE91" fill-rule="nonzero"/><path d="M47.168 163.167a30.575 30.575 0 0 0-10.603-.135c-3.979.658-8.045 2.103-11.937 1.048-2.284-.62-4.257-2.055-6.488-2.853a12.335 12.335 0 0 0-6.699-.4 11.426 11.426 0 0 0 2.175 12.196 11.472 11.472 0 0 0 12.021 3.07c2.357.864 4.932.935 7.332.202 3.39.745 6.936-.084 9.642-2.253a11.438 11.438 0 0 0 4.286-8.912c0-.25 0-.5-.025-.75.121-.398.22-.803.296-1.213z" fill="#000" fill-rule="nonzero" opacity=".1"/><path d="M238.018 162.225l10.212-6a24.597 24.597 0 0 0-5.221-6.25l-19.265 6 15.095-8.86a24.576 24.576 0 0 0-24.303.412 24.492 24.492 0 0 0-12.027 21.088c0 13.53 10.988 14 24.54 14 13.553 0 24.541-.47 24.541-14a24.378 24.378 0 0 0-2.106-9.94l-11.466 3.55z" fill="#00DE91" fill-rule="nonzero"/><path d="M240.605 175.377c-1.042-1.127-2.337-2-3.619-2.837-1.855-1.227-3.774-2.482-5.957-2.9-1.92-.367-3.902-.057-5.852-.17a13.687 13.687 0 0 1-8.968-4.102c-1.395-1.44-2.491-3.208-4.17-4.308-1.807-1.185-4.1-1.44-6.244-1.145-.623.09-1.24.217-1.848.377a24.397 24.397 0 0 0-1.45 8.313c0 13.53 10.988 14 24.54 14 6.576 0 12.548-.11 16.956-1.77l-.737-1.375c-.766-1.435-1.547-2.885-2.651-4.083z" fill="#000" fill-rule="nonzero" opacity=".1"/><g transform="translate(55.003 73.25)" fill-rule="nonzero"><path d="M107.177 67.375s2.865-1.563 6.792-.781c3.926.781 9.938.359 10.486.282l-17.278.499zm12.506-45.75s.946 15.035-.737 18l.737-18zm3.52 18s-1.238 14-2.097 16.736c-.859 2.737 2.097-16.736 2.097-16.736zm7.763-17.25c-.424 4.338-.653 7.179-.385 10.65.229 2.697.19 5.41-.116 8.1l.501-18.75z" fill="#000" opacity=".1"/><path d="M27.956 94.247s.39 1.807-.066 2.958c-.456 1.15-.39 3.66-.066 4.547.324.887 1.447 2.081-1.578 2.63-3.026.55-5.072.054-5.195-.385-.123-.44-.79-2.19-.263-3.177.527-.987.724-3.561-.263-5.041-.987-1.48-.33-3.779.585-4.047.915-.268 4.894-2.607 4.894-2.607s-1.473 2.526.107 3.083a2.843 2.843 0 0 1 1.845 2.039z" fill="#D0D0DD"/><path d="M60.858 80.097s-6.043 4.187-8.67 5.32C49.562 86.552 40.82 90.67 40.82 90.67s-8.809 1.136-10.23 2.981c-1.422 1.845-3.411 3.975-3.411 3.975l-1.563-8.658s17.336-8.942 17.478-9.58c.141-.638 5.117-2.555-9.378-2.484-12.702.064-17.384.888-18.445-.866a1.932 1.932 0 0 1-.244-.907c-.144-2.902 17.054-15.755 17.054-15.755s.84.437 1.844 1.025c1.1.642 2.394 1.468 2.988 2.099 1.137 1.205 3.907 1.56 3.907 1.56l16.913 5.258s4.974 1.561 5.115 5.961c.141 4.4-1.99 4.819-1.99 4.819z" fill="#3F312A"/><path d="M62.847 75.286c-.142-4.414-5.115-5.963-5.115-5.963l-16.913-5.258s-2.77-.356-3.907-1.562c-.594-.632-1.888-1.459-2.988-2.102-1.004-.58-1.844-1.026-1.844-1.026S14.882 72.234 15.026 75.148c.005.319.089.63.244.909 1.061 1.756 5.743.931 18.444.867 14.496-.071 9.52 1.848 9.379 2.487-.142.639-17.478 9.592-17.478 9.592l.034.193c-.879.52-3.83 2.241-4.607 2.473-.915.277-1.567 2.59-.581 4.067.985 1.478.774 4.067.261 5.066-.513 1 .13 2.752.261 3.194.132.441 2.154.935 5.158.387 3.004-.548 1.895-1.762 1.567-2.643-.327-.882-.387-3.415.066-4.57.032-.082.059-.165.081-.249a55.926 55.926 0 0 0 2.74-3.241c1.42-1.848 10.23-2.985 10.23-2.985s8.74-4.119 11.37-5.258c2.627-1.138 8.668-5.327 8.668-5.327s2.127-.422 1.984-4.824zm-36.84 16.848c-1.175-.414-.648-1.946-.311-2.686l.498 2.762c-.06-.02-.12-.047-.186-.07v-.006z" fill="#554239" opacity=".1"/><path d="M39.064 79.69s4.873 18.808 5.262 20.41c.389 1.602.385 4.525.385 4.525s1.837-.107 2.083-.388c.247-.282-.962-5.735-.962-5.735l.352-15.246-5.156-4.381-1.964.816z" fill="#D0D0DD"/><path fill="#FFCCD0" d="M26.293 89.875H30.049V93.125H26.293z"/><path d="M28.956 94.247s.39 1.807-.066 2.958c-.456 1.15-.39 3.66-.064 4.547.325.887 1.445 2.081-1.58 2.63-3.025.55-5.07.054-5.194-.385-.123-.44-.79-2.19-.263-3.177.527-.987.724-3.561-.263-5.041-.987-1.48-.328-3.779.585-4.047.913-.268 4.891-2.607 4.891-2.607s-1.47 2.526.107 3.083c.93.321 1.627 1.09 1.847 2.039z" fill="#211D1D"/><path d="M107.177 44.375s.981 4.09 3.14 6.25l.866-1.866-1.081-3.402-2.925-.982z" fill="#F26383"/><path d="M109.968 45.349l-2.791-.974s.939 4.09 3.005 6.25" fill="#000" opacity=".1"/><path d="M144.958 54.168l-.03.025a2.055 2.055 0 0 1-2.795-.255l-8.2-9.157-.212-.237 4.295-4.919.78.5.176.314c.672 1.176 3.04 5.287 3.835 5.957.937.785 3.227 6.915 2.151 7.772z" fill="#FFC1A0"/><path d="M110.933 49.017l-1.069.604c-1.65.914-4.662 2.555-5.049 2.503-.536-.07-.643-5.104-.643-5.104l2.853-2.104.294-.22.86-.321 2.754 4.642z" fill="#E7AC8D"/><path d="M110.933 49.021l-1.096.604a6.52 6.52 0 0 0-2.91-4.708l.301-.22.882-.322 2.823 4.646z" fill="#000" opacity=".1"/><path d="M116.943 43.012l-3.324 5.904-2.301 1.183-1.023.526c.286-4.45-3.118-6.23-3.118-6.23.93-.195 6.67-5.319 7.512-6.072l.103-.091.78-.107 1.371 4.887z" fill="#EC4C77"/><path d="M127.29 74.875l-2.835-2.128 9.255-30.372 3.266 1.207-2.476 4.825-2.726 15.043s-1.612 10.717-4.485 11.425z" fill="#D0D0DD"/><path d="M138.228 38.915l-9.642-.071s-8.438 2.33-7.73-1.058c.442-2.117-.61-4.76-1.464-6.444-.102-.204-.193-.396-.3-.577-.368-.681-.647-1.103-.647-1.103s1.004-.165 2.27-.342a75.2 75.2 0 0 1 1.859-.244c.328-.04.649-.074.952-.106 1.241-.121 2.217-.15 2.217.057 0 .208.193.707.507 1.347.048.102.104.208.158.314.429.826.94 1.606 1.527 2.33.31.388.67.734 1.07 1.027.144.1.294.187.45.264.238.116.49.197.75.24 1.077.181 2.067-.286 3.48.131 1.92.564 4.543 4.235 4.543 4.235z" fill="#FFC1A0"/><path d="M23.083 16.24l-.014.035a30.503 30.503 0 0 0-1.807 4.979l-.059.227a12.21 12.21 0 0 0-.4 3.502c.13 2.553 1.424 3.142 1.424 3.142s-19.57-3.21-16.363-3.747c.517-.086 1.08-.407 1.668-.883 1.101-.899 2.277-2.358 3.327-3.856.388-.553.763-1.113 1.105-1.648.024-.035.049-.072.07-.107 1.28-1.996 2.173-3.677 2.173-3.677s13.476-8.138 8.876 2.033z" fill="#FFCCD0"/><path d="M119.948 78.69s4.872 18.808 5.261 20.41c.39 1.602.385 4.525.385 4.525s1.835-.107 2.083-.388c.249-.282-.962-5.735-.962-5.735l.352-15.246-5.155-4.381-1.964.816z" fill="#D0D0DD"/><path d="M122.765 72.625c.11 0 4.923.106 4.923.106l.356 3.374s-.142 6.388.213 7.355c.356.968 3.531 18.32 3.531 18.32s1 6.107.927 7.598l-2.317.497s.463-1.314-.214-3.763c-.676-2.448-1.997-7.03-1.997-7.03l-1.675-7.53s-.286-13.355-10.592-12.774c-10.306.58-10.877 7.936-10.877 7.936s-3.5 14.38-4.102 16.156c-.603 1.777-.927 6.142-.927 6.142l-2.353-.213.778-11.614 2.175-23.896 6.705-.46 15.446-.204zM19.031 81.696s-4.872 18.804-5.26 20.406c-.39 1.601-.386 4.523-.386 4.523s-1.836-.107-2.083-.388c-.246-.282.945-5.74.945-5.74l-.352-15.242 5.165-4.38 1.971.821z" fill="#D0D0DD"/><path d="M16.21 75.875c-.108 0-4.922.106-4.922.106l-.358 3.373s.144 6.388-.214 7.356c-.357.968-3.525 18.32-3.525 18.32s-.997 6.107-.927 7.597l2.32.498s-.465-1.314.213-3.763c.679-2.45 1.997-7.031 1.997-7.031l1.676-7.529s.286-13.358 10.593-12.777c10.307.581 10.873 7.949 10.873 7.949s3.5 14.382 4.1 16.157c.601 1.775.928 6.144.928 6.144l2.354-.213-.778-11.615-2.183-23.898-6.704-.461-15.444-.213z" fill="#E1E3EA"/><path d="M62.104 80.097s-6.038 4.187-8.668 5.32c-2.63 1.134-11.366 5.252-11.366 5.252s-8.81 1.136-10.232 2.981c-1.421 1.845-3.41 3.975-3.41 3.975l-1.563-8.658s17.335-8.942 17.478-9.58c.144-.638 5.117-2.555-9.379-2.484-12.7.064-17.381.888-18.442-.866a1.932 1.932 0 0 1-.244-.907c-.142-2.902 17.052-15.755 17.052-15.755s.84.437 1.843 1.025c1.1.642 2.394 1.468 2.989 2.099 1.136 1.205 3.908 1.56 3.908 1.56l16.908 5.258s4.975 1.548 5.12 5.956c.146 4.408-1.994 4.824-1.994 4.824z" fill="#554239"/><path d="M59.098 36.625s.621 1.639 2.332 1.49c1.71-.147-2.332-1.49-2.332-1.49zm1.752-2.75s1.238.215 1.69 1.235c.453 1.02-1.69-1.235-1.69-1.235zm3.416-1.75c0 .21.766 3.9 0 5.429-.765 1.528-.656 3.321-.656 3.321l.656-8.75z" fill="#000" opacity=".1"/><path fill="#E1E3EA" d="M64.1057851 98.7379547L64.0531236 109.125 62.1202499 108.964306 55.0909091 52.2314842 57.166164 52.1695297 58.6328855 52.125z"/><path fill="#D0D0DD" d="M64.1057851 109.375L62.161554 109.21418 55.0909091 52.4370029 57.1783581 52.375 57.0881112 52.7024526z"/><path fill="#E1E3EA" d="M73.3710744 52.375L66.2328239 108.840582 64.8967352 109.139856 63.8553719 109.375 63.9084225 98.9490002 70.1801801 52.588767 70.3039648 52.5790503z"/><path fill="#D0D0DD" d="M65.10451 109.108978L65.1178772 109.140047 64.1057851 109.375 64.1573445 98.9574352 70.2528123 52.6347088 70.3731176 52.625 71.6181818 52.9007305z"/><path fill="#D0D0DD" d="M89.6479339 87.072845L89.485644 90.7667719 89.055478 100.625 82.3859504 52.3382976 83.909129 52.1734767 84.3764456 52.125z"/><path fill="#E1E3EA" d="M89.6479339 87.1707271L89.4850586 90.875 83.978698 52.607236 83.8884298 52.1736125 84.357432 52.125z"/><path fill="#D0D0DD" d="M91.3742011 69.8716426L91.5400198 93.375 90.6098172 93.3420713 88.646281 93.2684659 89.4268423 52.125 90.9232551 52.3032025 91.6512397 52.3903667z"/><path fill="#E1E3EA" d="M91.3847806 69.7696661L91.544267 93.375 90.6495868 93.3419284 90.9510551 52.125 91.6512397 52.2125424z"/><path fill="#D0D0DD" d="M30.3 51.8072126L30.4066501 50.2413232 39.5824371 50.2925705 67.1679707 49.875 88.455331 51.0233189 102.00765 51.2852495 102.168595 52.7467462 67.3269763 53.375z"/><path fill="#E1E3EA" d="M30.3 50.138624L57.5158789 51.375 101.918182 51.2626022 68.724585 49.125z"/><g transform="matrix(-1 0 0 1 89.398 30.625)"><path d="M9.479 19.922l27.938.203a.776.776 0 0 0 .32-.056c.074-.036.095-.083.056-.125l-4.356-4.191-18.817-.128-5.566 4.065c-.063.051-.05.11.036.157a.878.878 0 0 0 .389.075z" fill="#DFE6F5"/><path d="M9.479 19.75l27.938.125c.126 0 .245-.012.32-.034.074-.022.095-.05.056-.077l-4.356-2.56-18.817-.079-5.566 2.484c-.063.031-.05.068.036.096.086.029.232.046.389.046z" fill="#000" opacity=".15"/><path d="M8.765 19.198l28.296.177-3.847-3.452c-.127-.115-.484-.193-.892-.196l-18.184-.102-5.373 3.573z" fill="#DFE6F5"/><path d="M12.1 17.947l3.366-1.702c.146-.073.465-.12.816-.12h8.366c.494 0 .894.092.894.205v1.84c0 .056-.1.11-.278.148-.177.039-.416.06-.66.057l-11.735-.138c-.296-.003-.564-.04-.718-.098-.154-.058-.174-.13-.051-.192zM1.014 1.227L7.153.382a.64.64 0 0 1 .67.375l6.45 14.83-5.25 2.808c.156-.348.271 2.362-.853.013L.03 2.615c-.189-.393.543-1.332.984-1.387z" fill="#4C4C56"/><path d="M1.014.983L7.153.131a.64.64 0 0 1 .67.378l6.45 14.928-4.972 3.45c.155-.35.27 2.378-.853.014L.03 2.38c-.19-.396.542-1.341.983-1.397z" fill="#000" opacity=".15"/><path d="M6.661.378c.282-.023.556.074.67.239l6.943 15.023-5.354 3.485L.064 1.96c-.09-.119-.085-.257.016-.372.1-.115.283-.192.49-.206L6.66.378z" fill="#4C4C56"/><path d="M1.796 1.49L6.823.632a.636.636 0 0 1 .69.393l6.217 14.147a.586.586 0 0 1-.013.47L10.1 18.041a.575.575 0 0 1-1.042 0L1.314 2.4a.646.646 0 0 1 .013-.578.637.637 0 0 1 .469-.333z" fill="#6C63FF"/></g><path d="M23.087 16.273l-.014.035a30.908 30.908 0 0 0-1.799 5.01l-.058.228a8.064 8.064 0 0 1-2.28.329c-2.055 0-2.981-2.18-4.419-3.447-.565-.495-2.015.346-2.428-.288a1.021 1.021 0 0 1-.07-.108c.024-.035.05-.072.07-.107 1.273-2.009 2.163-3.7 2.163-3.7s13.414-8.186 8.835 2.048z" fill="#000" opacity=".1"/><path d="M27.295 13.375a8.254 8.254 0 0 1-7.314 8.195 8.262 8.262 0 0 1-8.994-6.313 8.247 8.247 0 0 1 5.249-9.644 8.269 8.269 0 0 1 10.199 4.098 8.245 8.245 0 0 1 .86 3.664z" fill="#FFCCD0"/><path d="M22.287 28.125S2.647 24.92 5.865 24.384c.52-.086 1.085-.406 1.674-.882.114.134.202.288.26.454l3.648-.427s4.652-.998 6.51.144c.916.542 1.888.983 2.9 1.315.13 2.548 1.43 3.137 1.43 3.137zm12.77 32.28a1.102 1.102 0 0 1-.352.182c-.93.286-2.077 4.563-2.077 4.563S20.706 76.552 16.273 76.113a1.937 1.937 0 0 1-.246-.912c-.142-2.914 17.174-15.826 17.174-15.826s.847.44 1.857 1.03z" fill="#000" opacity=".1"/><path d="M11.416 23.777s4.617-.994 6.463.144c1.24.733 2.58 1.285 3.976 1.64 0 0 3.408.855 4.544 2.063 1.136 1.208 2.2.426 2.698 1.993.498 1.567 1.988 3.057 1.988 3.057l-.71 10.598.569 6.119s.284 2.559-.426 3.129c-.71.57.141 1.493.774 1.99.633.5 2.272 2.419 2.06 3.13-.213.712 1.705 1.495 1.705 1.495s.07 1.208-.852 1.493c-.921.285-2.052 4.546-2.052 4.546s-12.43 11.959-16.546 10.883c-4.117-1.077-7.173-4.908-7.173-4.908s-2.77-12.446-3.55-14.44c-.78-1.993-2.841-8.53-2.841-8.53S.907 40.639.34 39.146c-.568-1.493-.57-9.318 1.136-10.954 1.705-1.636 3.193-2.565 3.193-3.133 0-.568 1.634-1.708 2.273-1.636.638.071.851.775.851.775l3.623-.42z" fill="#00C685"/><path d="M62.59 47.552c-1.989 3.505-9.508 2.787-9.508 2.787s-2.624-.573-4.255.358c-1.63.93-9.297 1.928-9.297 1.928s-2.9-.643-3.618-1.574c-.617-.808-6.498-4.321-8.016-5.219l-.302-.18a.402.402 0 0 1-.049-.028l.012-.014 6.303-7.985 1.03 1.11 5.07 5.453s4.968.214 6.382 1.073c1.414.86 5.891-.286 5.891-.286s2.199 0 2.34-.499c.141-.498 10.003-.424 8.017 3.076z" fill="#FFCCD0"/><path d="M26.288 9.64c-.38.097-.719.312-.967.614-.373.505-.325 1.195-.468 1.806-.236.998-1.02 1.9-.87 2.914.054.356.21.755 0 1.046-.194.26-.592.26-.895.146h-.024c-.787-.316-1.218-1.13-1.777-1.767-.558-.636-1.568-1.106-2.215-.563-.544.457-.447 1.296-.397 2.005.05.709-.147 1.615-.847 1.734-.28.052-.58-.05-.852.014-.88.204-.81 1.719-1.667 1.996-.3.095-.626 0-.934-.075a3.103 3.103 0 0 0-.793-.07c-.9.018-1.842.29-2.643.063.416-.579.81-1.174 1.17-1.735a8.143 8.143 0 0 1-.314-8.437 8.197 8.197 0 0 1 7.346-4.204 8.194 8.194 0 0 1 7.152 4.523l-.005-.01z" fill="#000" opacity=".1"/><path d="M14.335 19.51c.31.074.633.171.935.074.86-.279.79-1.813 1.667-2.018.279-.066.581.037.856-.011.701-.127.9-1.045.848-1.755-.052-.71-.147-1.56.397-2.025.649-.55 1.66-.07 2.22.57.559.638.99 1.469 1.777 1.787.31.126.722.13.922-.14.199-.272.056-.697 0-1.057-.15-1.028.635-1.938.871-2.95.143-.618.095-1.314.469-1.824.79-1.076 2.82-.532 3.485-1.692.298.035.6-.003.88-.113.266-.135.466-.457.357-.737-.083-.217-.31-.334-.501-.464a2.297 2.297 0 0 1-.988-1.965c.016-.37.122-.737.1-1.106a1.617 1.617 0 0 0-1.622-1.463c-.242.01-.478.077-.72.083-1.152.035-2.116-1.27-3.238-1.007-.24.056-.468.185-.714.185-.566 0-.916-.653-1.456-.825-.43-.136-.897.055-1.344 0-.448-.054-.798-.306-1.176-.515-.811-.444-1.893-.639-2.602-.046a2.326 2.326 0 0 1-.506.407c-.237.079-.49.094-.735.045a6.795 6.795 0 0 0-2.192.148.821.821 0 0 0-.502.263c-.085.16-.139.333-.159.513-.217.844-1.253 1.13-2.114 1.203a1.18 1.18 0 0 0-.64.173c-.311.236-.301.718-.164 1.084.138.367.372.706.422 1.096.126.974-.923 1.72-1.1 2.694-.24 1.343 1.24 2.663.736 3.932-.223.563-.817.998-.79 1.602.027.604.61.955.968 1.417.359.462.484 1.004.62 1.548.219.877.248 2.57 1.264 2.877 1.05.314 2.338-.255 3.469.012z" fill="#FFEDBA"/><path d="M14.774 48.125c1.207 1.56 5.465 5.246 8.302 6.167 2.838.922-8.302-6.167-8.302-6.167zm.501 7.75c.507.355 2.82 4.626 5.278 4.983 2.457.357-5.278-4.983-5.278-4.983zm.501-3.5c.142.21 5.786 5.025 7.858 5.445 2.072.42.286-1.676-2.286-2.654-2.573-.978-5.572-2.791-5.572-2.791zm0 10.25s3.751 1.283 6.3.942c2.549-.34-6.3-.942-6.3-.942zm4.507 8.25s3.64-2.609 5.467-2.745c1.825-.137-5.467 2.745-5.467 2.745zM3.506 27.125s9.094 1.003 6.568 1.435c-2.526.432-6.568-1.435-6.568-1.435zm0 4.75s4.237 0 5.793-.781c1.557-.782-5.793.781-5.793.781zm11.77 7.25s1.122 1.06 4.63 2.052c3.509.99-4.63-2.052-4.63-2.052zm20.887 24.25s2.171 1.098.543 3.441c-1.627 2.344-.543-3.441-.543-3.441z" fill="#000" opacity=".1"/><path d="M15.403 72.375l-.033-.333c.113-1.104.033.333.033.333z" fill="#E4AAB4"/><path d="M16.778 78.375l-5.677-.57-1.064-2.137-5.893-32.53-.137-.763 9.009.072.083 1.034 2.305 28.674-.044.583c-.143 2.001 1.418 5.637 1.418 5.637z" fill="#E1E3EA"/><path d="M126.459 30.762l-.16.116c-.61.426-1.427-1.098-2.14-.883-.614.18-1.12 2.13-1.788 2.13a6.808 6.808 0 0 1-2.972-.683c-.103-.212-.194-.412-.302-.6-.371-.71-.652-1.148-.652-1.148s1.01-.172 2.285-.356a73.423 73.423 0 0 1 1.873-.254c.33-.042.654-.076.96-.11 1.249-.127 2.232-.157 2.232.06 0 .216.195.734.51 1.401.043.106.1.216.154.327z" fill="#000" opacity=".1"/><path d="M129.213 24.615a7 7 0 0 1-4.321 6.474 7.02 7.02 0 0 1-7.645-1.511 6.991 6.991 0 0 1-1.524-7.63 7.012 7.012 0 0 1 6.479-4.323 7 7 0 0 1 4.96 2.042 6.977 6.977 0 0 1 2.051 4.948z" fill="#FFC1A0"/><path d="M128.027 37.915l-2.07.21s.213-1.837 1.115-2.415c.598-.381 1.714-.976 2.395-1.335.236.115.488.195.748.238-3.18 2.022-2.188 3.302-2.188 3.302z" fill="#FF7292"/><path d="M104.613 46.947l-.494-.072s-2.153.143-4.268.387c-2.116.244-5.117.89-2.93 3.445 2.187 2.556 4.199-.46 4.199-.46s2.047 2.557 3.633 1.704c1.587-.854-.14-5.004-.14-5.004zm-8.705 40.985s1.357 3.26 1.244 4.181c-.112.922 4.516-.885 4.516-.885s-1.068-2.48-.498-3.012c.57-.53-5.262-.284-5.262-.284z" fill="#FFC1A0"/><path fill="#FFC1A0" d="M89.398 96.625H93.154V101.375H89.398z"/><path d="M96.735 86.6c-.368.581-.633 1.58-.82 2.606a25.898 25.898 0 0 0-.39 3.655c0 .714.355.57 0 1.71-.31.887-.543 1.8-.697 2.729 0 .038-.013.077-.02.118-.213 1.28-.428 1.707-.428 1.707s-5.429-.355-6.57-1.139c-1.141-.783.428-1.565.428-1.565v-.194c.115-2.175 1.23-23.14 1.704-25.366.115-.483.355-.927.696-1.288.656-.731 1.63-1.28 2.45-1.645.485-.218.986-.403 1.497-.553 0 0 .284 1.643.656 3.973.851 5.325 2.14 14.208 1.494 15.251z" fill="#332E55"/><path d="M95.157 71.373c-.41.767-.827 1.247-1.13.872-.521-.644-2.188-1.843-3.377-2.658 1.296-1.488 3.864-2.212 3.864-2.212s.279 1.653.643 3.998z" fill="#FFC1A0"/><path d="M126.913 65.428a38.567 38.567 0 0 1-.312 2.888 8.85 8.85 0 0 1-4.86 6.712s-13.122 0-15.407-.636c-1.152-.323-2.161.062-2.875.518a4.984 4.984 0 0 0-1.116.965s-1.426-5.722-1.426-6.003c0-.282.777-2.827 2.21-4.593 1.433-1.765 9.84-2.048 10.342-2.118.332-.046 3.396-1.369 5.42-2.254 1.024-.447 1.782-.782 1.782-.782l3.305 1.04.123.036 2.64.832s.342.78.174 3.395z" fill="#332E55"/><path d="M124.205 61.2c-.626.26-1.617.658-2.767 1.07-2.5.905-5.75 1.895-7.652 1.733-3.402-.283-7.3.493-7.3.493a12.823 12.823 0 0 0-3.406 2.197c-1.772 1.553-.213 2.046.568 3.885.318.753.245 2.515.046 4.332a4.965 4.965 0 0 0-1.109.965s-1.418-5.722-1.418-6.003c0-.282.773-2.827 2.197-4.593 1.423-1.765 9.779-2.048 10.277-2.118.33-.046 3.375-1.369 5.386-2.254 1.019-.447 1.772-.782 1.772-.782l3.284 1.04.122.034zM96.737 86.526c-.362.58-.623 1.576-.807 2.598a1.77 1.77 0 0 1-.384-.257c-.647-.55-.59-1.597-.5-2.263.036-.277.078-.49.078-.58 0-.286.28-2.84-.284-3.76-.564-.92-.702-4.538-.702-4.538s-.894-5.188-.984-9.801c.478-.218.971-.402 1.475-.551 0 0 .28 1.637.646 3.958.83 5.304 2.1 14.154 1.462 15.194z" fill="#000" opacity=".1"/><path d="M124.706 60.97s-.228.1-.623.265c-.622.258-1.661.678-2.877 1.114-2.517.911-5.793 1.907-7.706 1.744-3.425-.284-7.351.497-7.351.497a12.913 12.913 0 0 0-3.426 2.205c-1.784 1.564-.214 2.06.572 3.91.329.775.241 2.634.03 4.52-.29 2.583-.816 5.22-.816 5.22s-.214.711-.07 1.137c.144.427.14 3.696.14 3.696-.18.28-.285.6-.305.932-.012.277.07.55.235.775.572.775.144 2.845.144 2.845s-1.214.213-3.286-.287-2.854.074-3.78-.71c-.655-.551-.599-1.6-.507-2.268.037-.278.08-.49.08-.582 0-.287.284-2.846-.288-3.769-.572-.922-.712-4.55-.712-4.55s-2.273-13.024.013-16.187c.04-.057.083-.112.129-.164 1.274-1.454 3.927-1.717 6.406-1.574 1.79.11 3.565.399 5.297.862 1.428.429 1.858.214 2.57-.071.508-.194.548-1.192.527-1.744v-.157c0-.14-.02-.229-.02-.229l.633-.343 2.65-1.432 12.34 4.345z" fill="#332E55"/><path d="M126.138 30.399c.46.947 1.023 1.84 1.681 2.66-.22.081-.459.088-.682.018-.232-.091-.4-.299-.623-.406-.578-.273-1.223.113-1.803-.248-.453-.283-.55-.64-.563-1.089v-.194c0-.623-.066-1.859-.721-2.165a1.006 1.006 0 0 0-.798.027.95.95 0 0 0-.153.08c-.437.26-.754.812-1.251.775a.75.75 0 0 1-.604-.522 3.492 3.492 0 0 1-.204-.87c-.149-1.14-.579-2.22-1-3.288-.082-.204-.194-.439-.421-.458-.351-.03-.438.52-.245.817.193.297.526.524.578.875.081.582-.784.922-1.257.582-.472-.34-.557-1.03-.457-1.61.1-.58.347-1.134.386-1.724.038-.59-.226-1.263-.789-1.428-.491-.147-1.01.148-1.521.155a6.944 6.944 0 0 1 6.706-4.76 6.948 6.948 0 0 1 6.53 5.002 7.009 7.009 0 0 1-2.772 7.773l-.017-.002z" fill="#000" opacity=".1"/><path d="M123.002 29.002c-.525.193-.853.895-1.41.843-.559-.052-.734-.81-.81-1.388-.148-1.135-.579-2.211-1.001-3.274-.081-.203-.203-.437-.421-.456-.351-.03-.438.518-.245.813.193.296.529.522.579.872.083.58-.784.918-1.257.58-.472-.338-.56-1.026-.459-1.604.1-.578.346-1.131.386-1.717.04-.585-.228-1.258-.79-1.424-.56-.167-1.157.237-1.736.14a1.075 1.075 0 0 1-.743-1.48c.249-.483.89-.87.723-1.386-.208-.643-1.304-.361-1.737-.887-.337-.412-.029-1.06.411-1.353.44-.294.99-.418 1.411-.746.792-.617.927-1.805 1.676-2.476.85-.773 2.163-.605 3.232-1.003 1.027-.387 1.95-1.309 3.027-1.116.26.047.505.157.772.182.546.05 1.044-.278 1.544-.485a3.672 3.672 0 0 1 3.034.14c-.1.693.617 1.306 1.314 1.279.504-.018 1.191-.194 1.367.286.083.218-.022.473.056.696.13.386.667.413 1.015.634.791.502.422 1.869 1.108 2.512.3.28.735.348 1.11.516 1.237.55 1.684 2.047 1.991 3.368.08.254.099.524.052.786-.102.387-.463.636-.664.978-.478.816.033 1.895-.272 2.79-.305.894-1.31 1.403-1.45 2.319-.047.31.016.628-.034.937-.135.84-1.017 1.323-1.83 1.57-.227.068-.486.15-.588.367-.045.097-.052.207-.089.308-.09.237-.34.369-.58.477-1.057.5-2.135.956-3.234 1.367-.305.114-.646.226-.951.108-.232-.091-.398-.3-.624-.404-.579-.275-1.223.112-1.802-.248-.518-.32-.58-.736-.58-1.271.016-.83-.09-2.695-1.501-2.15z" fill="#242143"/><path d="M94.907 97.235c0 .04-.014.08-.02.123-.217 1.325-.433 1.767-.433 1.767s-5.486-.367-6.64-1.179c-1.153-.811.433-1.62.433-1.62v-.201c1.9.496 5.172 1.229 6.66 1.11z" fill="#575988"/><path d="M94.907 97.235c0 .04-.014.08-.02.123-.217 1.325-.433 1.767-.433 1.767s-5.486-.367-6.64-1.179c-1.153-.811.433-1.62.433-1.62v-.201c1.9.496 5.172 1.229 6.66 1.11z" fill="#000" opacity=".1"/><path d="M94.052 98.375s-6.328.43-6.579.322c-.25-.107-.252 3.332-.252 3.332s-1.402 2.795-1.582 3.475c-.18.68-1.582 2.365-1.582 2.365s-2.008 1.469.931 2.04c2.94.573 6.184-.177 6.184-.177s2.155-3.726 2.336-3.515c.18.21 0 1.97 0 1.97l1.258-.322s-.216-2.328.288-3.582-1.002-5.908-1.002-5.908z" fill="#D3878A"/><path d="M102.766 89.58s-1.21.212-3.277-.286-2.847.073-3.77-.707c-.655-.55-.598-1.596-.507-2.262.904-.193 2.305-.49 3.39-.646 1.085-.156 2.645.05 3.786.292-.013.277.07.55.235.773.57.778.143 2.836.143 2.836z" fill="#000" opacity=".1"/><path d="M102.766 89.83s-1.21.212-3.277-.286-2.847.073-3.77-.707c-.655-.55-.598-1.596-.507-2.262.904-.193 2.305-.49 3.39-.646 1.085-.156 2.645.05 3.786.292-.012.277.07.55.235.773.57.782.143 2.836.143 2.836z" fill="#575988"/><path d="M102.766 89.83s-1.21.212-3.277-.286-2.847.073-3.77-.707c-.655-.55-.598-1.596-.507-2.262.904-.193 2.305-.49 3.39-.646 1.085-.156 2.645.05 3.786.292-.012.277.07.55.235.773.57.782.143 2.836.143 2.836z" fill="#000" opacity=".1"/><path d="M105.674 99.852l-2.1.53-.605-2.475s-.528.994-1.461 2.373c-.124.181-.252.37-.388.563-1.071 1.517-4.673 1.147-5.91.262a1.29 1.29 0 0 1-.283-.262c-.82-1.06.427-2.088 1.03-2.653.604-.565.286-4.314.286-4.314s-.285-1.662-.072-2.44c.214-.78 5.591-1.061 5.591-1.061s1.1 2.863 1.708 3.748c.607.884 1.358 1.98 1.209 2.758-.15.779.995 2.97.995 2.97z" fill="#D3878A"/><path d="M103 62.856c-.93 1.146-6.98.28-8.845-1.484.04-.056.084-.11.13-.162 1.287-1.433 3.968-1.692 6.472-1.551 1.146.8 2.982 2.284 2.243 3.197z" fill="#FFC1A0"/><path d="M97.362 63.875s-1.043-1.386-1.981-.709c-.939.678-1.226-1.181-1.226-1.181s.505-.337 1.585.17c1.08.505 2.305 1.383 2.16 1.553-.146.169-.538.167-.538.167z" fill="#000" opacity=".1"/><path d="M97.362 63.625s-1.045-1.384-1.981-.709c-.937.676-1.226-1.181-1.226-1.181s.505-.337 1.585.17c1.08.505 2.305 1.383 2.16 1.553-.146.169-.538.167-.538.167z" fill="#575988"/><path d="M116.442 63.875s5.26 2.399 4.086 3.36c-1.174.962-4.086-3.36-4.086-3.36zM95.407 80.661s3.328.363 4.072.833c.564.37 1.225.59 1.912.631.425 0-4.497-2.596-5.984-1.464zm4.005-2.036s-1.23.858.172 1.2c1.401.343-.172-1.2-.172-1.2zm-7.26 11.75s1.958 2.26 2.659 1.644c.7-.617-2.659-1.644-2.659-1.644zM90.9 94.894c.135 0 .576-.068 1.456.548.88.615.947-.48.61-.933-.339-.453-2.066.385-2.066.385zM13.021 43.375l-.151-.033s-5.389-1.11-8.727-.276l-.136-.691 8.932.065.082.935z" fill="#000" opacity=".1"/><path d="M8.234 41.125s13.69.072 18.463 9.482c4.773 9.41 5.847 27.38 5.847 27.38s.778 2.567-.357 2.637c-1.135.07-1.64-2.352-1.64-2.352s.429-1.782.071-2.567c-.357-.785-4.699-22.593-4.699-22.593s-.5-6.845-12.976-9.84c0 0-14.617-3.278-10.839 4.921 0 0 .214 1.14-.57.927-.783-.214-1.712-2.353-1.068-5.053.643-2.7 7.768-2.942 7.768-2.942z" fill="#E1E3EA"/><path d="M34.807 38.742l-.038.033c-.958.782-4.5 6.927-6.888 7.097a.847.847 0 0 1-.14 0s-.056-.068-.16-.186a.18.18 0 0 0-.036-.043l6.245-8.018 1.017 1.117z" fill="#000" opacity=".1"/><path d="M27.834 31.23l3.216 1.352s1.571 1.56 1.501 2.98c-.07 1.419.78.353.78.353s.572.213.572.774c0 .56 1.572 1.135.57 1.914-1 .779-4.715 7.093-7.144 7.021a48.786 48.786 0 0 0-4.646-4.609c-2.495-2.126-4.782-13.05 5.15-9.786z" fill="#000" opacity=".1"/><path d="M27.835 31.23l3.215 1.352s1.572 1.56 1.502 2.98c-.07 1.419.779.353.779.353s.572.213.572.774c0 .56 1.572 1.135.571 1.914-1.001.779-4.715 7.093-7.143 7.021a48.78 48.78 0 0 0-4.645-4.609c-2.5-2.126-4.783-13.05 5.15-9.786z" fill="#00C685"/><path d="M138.98 40.454c-.528 1.187-5.047 4.397-5.047 4.397v.024l-.212-.241 4.294-5.009.78.508.184.32zm-12.067 25.099c-.619.072-1.243.09-1.865.054a27.807 27.807 0 0 0-3.89-3.253 26.943 26.943 0 0 0-2.19-1.379c-2.792-1.556-6.263-2.783-9.801-2.188-.08.012-.16.028-.237.043l.231-.194c.145-.123.366-.329.607-.574l2.625-1.437 12.23 4.35s-.225.101-.616.266l2.739.877s.333.794.167 3.435z" fill="#000" opacity=".1"/><path d="M123.174 37.05s9.567.924 13.923.427c0 0 2.14 1.634 1.856 2.698-.284 1.065-5.06 4.402-5.06 4.402s-.356 8.311-2.284 10.3c-1.929 1.987-3.651 7.102-2.795 8.809.857 1.707-3.355 1.42-3.355 1.42s-7.996-8.308-16.279-6.745c0 0 3-2.416 2.785-4.192-.214-1.775-.5-5.042-.5-5.042s-1.499-3.485 2.357-6.108c3.855-2.623 1-4.692 1-4.692s-.144-.64 1.498-.852a16.975 16.975 0 0 0 2.357-.426s1.57-1.42 2.285-1.136c.714.284 2.212 1.138 2.212 1.138z" fill="#FF7292"/><path d="M133.907 43.612s1.134 2.24-.106 3.414c-.48.507-.926 1.049-1.331 1.62a48.595 48.595 0 0 0-5.713 9.97c-2.617 6.125-7.13 16.537-7.805 17.088-.965.775-1.027 2.383-.071 2.42.956.037 1.524-1.282 1.524-1.282s.957-2.739 1.56-3.842c.602-1.104 6.875-15.549 6.875-15.549s2.34-6.191 4.961-7.613c0 0 2.268-3.773 1.878-5.445-.39-1.672-1.772-.781-1.772-.781z" fill="#000" opacity=".1"/><path d="M133.907 43.36s1.134 2.243-.106 3.416c-.48.508-.926 1.05-1.331 1.62a48.594 48.594 0 0 0-5.713 9.97c-2.617 6.125-7.13 16.537-7.805 17.088-.965.775-1.027 2.383-.071 2.42.956.037 1.524-1.282 1.524-1.282s.957-2.739 1.56-3.842c.602-1.104 6.875-15.548 6.875-15.548s2.34-6.191 4.961-7.613c0 0 2.268-3.773 1.878-5.445-.39-1.672-1.772-.783-1.772-.783z" fill="#D0D0DD"/><path d="M143.599 50.81c.226 1.282.214 2.637-.331 3.814 0 0-3.015.142-6.03-4.1l-1.81-4.457s-2.02-3.458-3.226-3.28c-1.207.18-2.127 6.24-5 5.668-2.874-.571-1.354-7.842 2.445-8.593l1.466-.375a3.523 3.523 0 0 1 3.076.655 91.76 91.76 0 0 0 2.802 2.138c.94.696 1.831 1.376 2.582 1.96a10.698 10.698 0 0 1 4.026 6.57z" fill="#FFC1A0"/><path d="M112.185 50.625s1.455 1.803 3.825 2.185c2.37.381 3.72-.382 5.71.439 1.99.82-9.535-2.624-9.535-2.624zm19.532-3.5s-4.415 3.849-4.252 4.88c.162 1.03 4.252-4.88 4.252-4.88z" fill="#000" opacity=".1"/><g opacity=".1" transform="translate(113.688 17.625)" fill="#000"><path d="M5.856 8.558a.894.894 0 0 1-1.05.07c-.413-.303-.53-.86-.486-1.384-.044.161-.085.322-.114.487-.1.58-.013 1.26.46 1.608.472.347 1.338 0 1.257-.582a.777.777 0 0 0-.067-.2zM4.576 6.11c.08-.265.131-.537.153-.812.035-.581-.228-1.261-.79-1.428-.56-.167-1.157.24-1.736.142a1.07 1.07 0 0 1-.822-.88.848.848 0 0 0-.061.107 1.081 1.081 0 0 0 .74 1.484c.58.096 1.178-.308 1.737-.142.56.167.824.841.79 1.428 0 .035-.007.068-.01.1zM2.015 1.794a.719.719 0 0 0 .168-.655C1.974.494.876.777.446.252a.668.668 0 0 1-.12-.236C.133.324.085.692.305.96c.417.51 1.455.263 1.71.833zM19.32 12.076c-.227.068-.486.152-.588.369-.047.096-.052.207-.09.308-.092.238-.339.37-.568.478-1.058.502-2.138.96-3.234 1.37-.307.114-.646.227-.951.108-.232-.09-.4-.3-.623-.404-.58-.274-1.224.112-1.802-.248-.52-.322-.58-.737-.58-1.273 0-.814-.11-2.68-1.518-2.132-.524.194-.852.897-1.412.845-.56-.052-.731-.812-.806-1.391-.149-1.137-.58-2.216-1.002-3.282-.08-.204-.202-.438-.42-.457-.323-.027-.421.434-.286.738a.27.27 0 0 1 .145-.027c.216.02.337.253.418.457.427 1.066.855 2.145 1.002 3.282.075.581.23 1.337.808 1.391.579.054.888-.643 1.41-.845 1.411-.546 1.519 1.32 1.521 2.132 0 .536.052.953.579 1.275.579.36 1.221-.028 1.804.248.224.104.386.313.621.404.305.119.646 0 .953-.108a41.505 41.505 0 0 0 3.232-1.37c.23-.108.478-.24.579-.478.038-.101.044-.212.09-.308.1-.217.36-.3.589-.369.81-.248 1.694-.732 1.827-1.573.016-.11.023-.22.02-.331-.31.608-1.039.984-1.718 1.191zm3.585-7.628a1.763 1.763 0 0 0-.214.857c.021-.05.046-.099.073-.145.193-.343.56-.597.662-.98.033-.143.038-.29.015-.435-.152.246-.387.452-.536.704zm-1.723 5.115a2.1 2.1 0 0 0-.017.312c.314-.685 1.074-1.181 1.325-1.92.064-.196.097-.4.1-.606-.337.812-1.273 1.339-1.408 2.214z"/></g><path d="M103.921 96.125a21.085 21.085 0 0 0-2.274 1.714c-.925.84-3.235 1.536-3.235 1.536l5.51-3.25zm-11.268 9s-4.47 3.817-5.197 3.75c-.727-.069 5.197-3.75 5.197-3.75zm9.015-4.826c-.124.179-.251.366-.386.556-1.065 1.5-4.646 1.133-5.875.26 1.096-.367 4.48-1.397 6.26-.816zm-25.292-36.43s4.715-1.204 5.449-.549c.733.656-5.449.548-5.449.548zm-13.773 4.506s2.027 1.128 2.24 2.068c.214.94-2.24-2.068-2.24-2.068z" fill="#000" opacity=".1"/><g opacity=".1" transform="translate(7.763 3.625)" fill="#000"><path d="M.868.825c.095.247.233.48.326.727a1.078 1.078 0 0 0-.01-.176C1.138 1.008.92.684.781.337c0 .167.029.332.087.488zm.053 6.41C.864 6.52.395 5.787.174 5.049c.066.738.528 1.469.747 2.186z"/></g><path d="M45.996 77.396s6.06-.167 4.615.433c-1.446.6-5.537.545-5.537.545l.922-.978zm40.647-28.021a3.02 3.02 0 0 1-.104.491 1.816 1.816 0 0 1-.647-.052l.256-.437c.163.037.332.036.495-.002z" fill="#000" opacity=".1"/><path fill="#FFF" d="M38.3132231 77.1460124L45.5752066 77.125 43.1977365 80.8155444 38.5154357 83.125z"/></g><g transform="translate(168 46.75)" fill-rule="nonzero"><path fill="#FFF" d="M-0.0000407501544 0L-0.0000407501544 24.5731707 16.8455641 24.5731707 16.8455641 31 23.2956016 24.5731707 75.1239262 24.5731707 75.1239262 0z"/><path fill="#D0D0DD" d="M4.764 4H62.359V6.25H4.764z"/><path fill="#D0D0DD" d="M4.764 8.5H33.562V10.75H4.764z"/><ellipse fill="#D0D0DD" cx="8.02" cy="17.25" rx="3.255" ry="3.25"/></g><g transform="translate(21 39)" fill-rule="nonzero"><path fill="#FFF" transform="matrix(-1 0 0 1 53 0)" d="M0 -1.13624388e-13L0 20.4390244 8.00757576 20.4390244 8.00757576 25 12.5580808 20.4390244 53 20.4390244 53 -1.13624388e-13z"/><path fill="#D0D0DD" d="M4 3H49V5H4z"/><path fill="#D0D0DD" d="M4 7H28V9H4z"/><circle fill="#D0D0DD" cx="7" cy="14" r="3"/></g><g transform="translate(101 32)"><path fill="#1E62A7" d="M49.0809917 1L26.7942149 1 26.7942149 27.75 43.9585913 27.75 49.0809917 22.4310505z"/><path fill="#FFF" d="M28.7958678 7.5L46.7958678 7.5 46.7958678 5.25 28.7958678 5.25z"/><path fill="#FFF" d="M28.7958678 12.25L46.7958678 12.25 46.7958678 10 28.7958678 10z"/><path fill="#FFF" d="M28.7958678 16.25L46.7958678 16.25 46.7958678 14 28.7958678 14z"/><path fill="#FFF" d="M28.7958678 20.25L46.7958678 20.25 46.7958678 18 28.7958678 18z"/><path d="M39.064 1.625a1.627 1.627 0 1 1-3.255 0C35.81.728 36.538 0 37.437 0c.899 0 1.627.728 1.627 1.625" fill="#FFF"/><path fill="#1E62A7" d="M0 38L22.2867769 38 22.2867769 11.25 0 11.25z"/><path fill="#FFF" d="M2.00330579 17.5L19.5322314 17.5 19.5322314 15.25 2.00330579 15.25z"/><path fill="#FFF" d="M2.00330579 21.3125L19.5322314 21.3125 19.5322314 19.0625 2.00330579 19.0625z"/><path fill="#FFF" d="M2.00330579 25.125L19.5322314 25.125 19.5322314 22.875 2.00330579 22.875z"/><path fill="#FFF" d="M2.00330579 28.9375L19.5322314 28.9375 19.5322314 26.6875 2.00330579 26.6875z"/><path fill="#FFF" d="M2.00330579 32.75L19.5322314 32.75 19.5322314 30.5 2.00330579 30.5z"/><path d="M12.52 10.875a1.627 1.627 0 1 1-3.255 0c0-.898.73-1.625 1.628-1.625.9 0 1.628.727 1.628 1.625" fill="#FFF"/></g></g></svg>