<svg width="306" height="211" xmlns="http://www.w3.org/2000/svg"><defs><linearGradient x1="49.995%" y1="100.003%" x2="49.995%" y2="-.007%" id="a"><stop stop-color="gray" stop-opacity=".25" offset="0%"/><stop stop-color="gray" stop-opacity=".12" offset="54%"/><stop stop-color="gray" stop-opacity=".1" offset="100%"/></linearGradient><linearGradient x1="50.001%" y1="100.009%" x2="50.001%" y2="0%" id="b"><stop stop-color="gray" stop-opacity=".25" offset="0%"/><stop stop-color="gray" stop-opacity=".12" offset="54%"/><stop stop-color="gray" stop-opacity=".1" offset="100%"/></linearGradient><linearGradient x1="-.053%" y1="49.997%" x2="99.977%" y2="49.997%" id="c"><stop stop-color="gray" stop-opacity=".25" offset="0%"/><stop stop-color="gray" stop-opacity=".12" offset="54%"/><stop stop-color="gray" stop-opacity=".1" offset="100%"/></linearGradient><linearGradient x1="54.165%" y1="97.216%" x2="43.873%" y2="6.093%" id="d"><stop stop-color="gray" stop-opacity=".25" offset="0%"/><stop stop-color="gray" stop-opacity=".12" offset="54%"/><stop stop-color="gray" stop-opacity=".1" offset="100%"/></linearGradient></defs><g fill="none"><path d="M88.34 181.748C36.158 180.31 0 177.185 0 173.562c0-4.987 68.5-9.03 153-9.03s153 4.043 153 9.03c0 4.987-68.5 9.03-153 9.03 0 4.987-14.506 9.03-32.4 9.03s-32.4-4.043-32.4-9.03c0-.285.047-.566.14-.844z" fill="#000" opacity=".046"/><ellipse fill="#000" opacity=".046" cx="209.295" cy="201.82" rx="33.3" ry="5.117"/><ellipse fill="#000" opacity=".046" cx="74.895" cy="201.97" rx="32.4" ry="9.03"/><path d="M42.345 167.37c.002.785-.078 1.568-.24 2.336-.03.144-.063.301-.096.424-.852 3.429-3.255 5.936-6.123 6.096h-.3c-3.033 0-5.598-2.625-6.444-6.24a11.176 11.176 0 0 1-.306-2.637c0-4.897 3.021-8.864 6.75-8.864s6.759 3.997 6.759 8.885z" fill="#3F3D56"/><path d="M42.345 167.37c.002.785-.078 1.568-.24 2.336-.03.144-.063.301-.096.424h-.3c-.743-.04-1.481-.14-2.208-.3a13.438 13.438 0 0 1-3.51.595h-.522c-.618 0-1.235-.04-1.848-.123a13.514 13.514 0 0 1-2.901-.722c-.513.171-1.036.312-1.566.421a11.176 11.176 0 0 1-.306-2.637c0-4.897 3.021-8.864 6.75-8.864s6.747 3.982 6.747 8.87z" fill="#000" opacity=".1"/><path d="M56.745 150.857a13.747 13.747 0 0 0-1.47-6.203l-7.938 2.477 6.969-4.112a13.71 13.71 0 0 0-10.308-5.893c-.326-.496-.684-.971-1.071-1.42l-11.4 3.56 9.351-5.517a13.682 13.682 0 0 0-12.754-2.118 13.746 13.746 0 0 0-8.846 9.46l9.765 11.277-10.593-7.687c-5.546 3.947-7.375 11.373-4.3 17.457 3.076 6.085 10.129 8.992 16.579 6.834a13.733 13.733 0 0 0 8.784.243 13.7 13.7 0 0 0 11.55-2.713 13.797 13.797 0 0 0 5.136-10.73c0-.3 0-.601-.03-.902.389-1.302.583-2.654.576-4.013z" fill="#00C685"/><path d="M56.508 153.41a36.45 36.45 0 0 0-12.702-.163c-4.767.792-9.639 2.532-14.301 1.262-2.736-.747-5.1-2.475-7.773-3.435a14.707 14.707 0 0 0-8.025-.481 13.808 13.808 0 0 0 2.605 14.683 13.697 13.697 0 0 0 14.402 3.696 13.733 13.733 0 0 0 8.784.243 13.7 13.7 0 0 0 11.55-2.713 13.797 13.797 0 0 0 5.136-10.73c0-.3 0-.601-.03-.902.145-.48.263-.967.354-1.46z" fill="#000" opacity=".1"/><path d="M285.15 152.275l12.234-7.224a29.58 29.58 0 0 0-6.255-7.525l-23.079 7.224 18.084-10.667a29.315 29.315 0 0 0-29.116.496c-8.936 5.315-14.413 14.967-14.408 25.39 0 16.29 13.164 16.856 29.4 16.856 16.236 0 29.4-.566 29.4-16.856.005-4.123-.855-8.2-2.523-11.968l-13.737 4.274z" fill="#00C685"/><path d="M288.249 168.11c-1.248-1.357-2.799-2.407-4.335-3.416-2.223-1.478-4.521-2.989-7.137-3.491-2.301-.443-4.674-.07-7.011-.205a16.362 16.362 0 0 1-10.743-4.94c-1.671-1.733-2.985-3.861-4.995-5.185-2.166-1.427-4.914-1.734-7.482-1.379-.746.11-1.485.26-2.214.454a29.505 29.505 0 0 0-1.737 10.009c0 16.29 13.164 16.856 29.4 16.856 7.878 0 15.033-.133 20.313-2.131l-.882-1.656c-.918-1.728-1.854-3.474-3.177-4.915z" fill="#000" opacity=".1"/><g opacity=".046" transform="translate(185.595 93.31)"><path d="M5.634 70.713a5.449 5.449 0 0 1-.493.76 183.285 183.285 0 0 0-4.996-3.396l.11-.218a4.803 4.803 0 0 1 1.698-1.854c.935-.576 1.989-.702 2.856-.234.867.468 1.35 1.405 1.402 2.498a4.83 4.83 0 0 1-.577 2.444z" fill="#3F3D56"/><ellipse fill="#3F3D56" transform="rotate(-62.09 5.226 65)" cx="5.226" cy="65" rx="3.99" ry="3.044"/><ellipse fill="#3F3D56" transform="rotate(-62.09 7.505 60.689)" cx="7.505" cy="60.689" rx="3.99" ry="3.044"/><ellipse fill="#3F3D56" transform="rotate(-62.09 9.785 56.378)" cx="9.785" cy="56.378" rx="3.99" ry="3.044"/><ellipse fill="#3F3D56" transform="rotate(-62.09 12.062 52.07)" cx="12.062" cy="52.07" rx="3.99" ry="3.044"/><path d="M17.584 17.219a14.47 14.47 0 0 1-.234-2.009l7.692 2.594-7.671-3.999a14.63 14.63 0 0 1 5.16-10.354l7.432 10.769-5.771-11.977a14.55 14.55 0 0 1 15.166-.182 14.609 14.609 0 0 1 7.114 13.421 14.6 14.6 0 0 1-8.643 12.487c.19 1.034.268 2.085.233 3.135L26.38 31.01l11.515 1.901a14.597 14.597 0 0 1-8.48 11.003c1.356 7.494-3.264 14.773-10.612 16.72-7.348 1.949-14.957-2.088-17.477-9.273-2.52-7.184.893-15.103 7.842-18.19-1.199-6.631 2.287-13.223 8.435-15.955l-.018.003z" fill="#000"/><path d="M36.368 37.401a14.531 14.531 0 0 1-6.973 6.516c1.357 7.493-3.263 14.772-10.611 16.72-7.349 1.948-14.957-2.089-17.478-9.273-2.52-7.185.893-15.104 7.842-18.19-.565-3.112 27.987 2.778 27.22 4.227z" fill="#000" opacity=".1"/></g><g opacity=".2" transform="translate(73.695 .301)"><path d="M50.657 145.185c.138.564.325 1.116.558 1.649a343.849 343.849 0 0 1 10.913-3.977l-.103-.468a9.251 9.251 0 0 0-2.295-4.261c-1.468-1.516-3.373-2.255-5.205-1.806-1.833.45-3.182 1.981-3.791 3.997a9.268 9.268 0 0 0-.077 4.866z" fill="#3F3D56"/><ellipse fill="#3F3D56" transform="rotate(-13.72 54.128 134.666)" cx="54.128" cy="134.666" rx="5.853" ry="7.673"/><ellipse fill="#3F3D56" transform="rotate(-13.72 51.906 125.553)" cx="51.906" cy="125.553" rx="5.853" ry="7.673"/><ellipse fill="#3F3D56" transform="rotate(-13.72 49.686 116.44)" cx="49.686" cy="116.439" rx="5.853" ry="7.673"/><ellipse fill="#3F3D56" transform="rotate(-13.72 47.466 107.329)" cx="47.466" cy="107.329" rx="5.853" ry="7.673"/><path d="M53.547 39.774c.536-1.18.99-2.396 1.356-3.64L39.367 37.33l16.192-3.838a28.186 28.186 0 0 0-4.746-21.753L31.876 28.313 48.278 8.706A27.992 27.992 0 0 0 20.095 1.22 28.064 28.064 0 0 0 .522 22.873a28.113 28.113 0 0 0 10.216 27.361 27.95 27.95 0 0 0-1.893 5.735l21.848 5.352-22.364-1.9a28.125 28.125 0 0 0 10.631 24.56c-6.056 13.332-.868 29.088 11.916 36.193 12.785 7.104 28.872 3.17 36.953-9.036 8.081-12.206 5.442-28.586-6.063-37.624 5.36-11.8 1.964-25.742-8.22-33.74z" fill="#000" opacity=".201"/><path d="M9.025 68.53a27.958 27.958 0 0 0 9.935 15.437c-6.056 13.332-.868 29.088 11.916 36.193 12.785 7.104 28.872 3.17 36.953-9.036 8.081-12.207 5.442-28.586-6.063-37.624 2.519-5.53-53.488-8.032-52.741-4.97z" fill="#000" opacity=".1"/></g><path d="M204.126 39.39h-.52V11.236C203.605 5.028 198.513 0 192.232 0h-63.705c-6.28 0-11.372 5.033-11.372 11.237v11.67h-.152a.666.666 0 0 0-.67.66v5.618a.666.666 0 0 0 .67.66h.164v5.738h-.206a.661.661 0 0 0-.667.66v10.743c.003.367.3.663.667.662h.205v4.214h-.177a.661.661 0 0 0-.67.66V63.37a.666.666 0 0 0 .67.66h.177v98.41c0 6.208 5.092 11.236 11.373 11.236h63.69c6.282 0 11.373-5.033 11.373-11.236V60.444h.523a.666.666 0 0 0 .669-.66V40.049a.666.666 0 0 0-.67-.66z" fill="url(#a)"/><g opacity=".9" transform="translate(117.495 1.204)"><rect fill="#414A65" x="83.582" y="38.916" width="2.506" height="20.79" rx=".687"/><rect fill="#414A65" x=".244" y="22.629" width="1.408" height="6.844" rx=".687"/><rect fill="#414A65" x=".193" y="35.159" width="1.587" height="11.912" rx=".687"/><rect fill="#414A65" x=".219" y="51.239" width="1.51" height="12.015" rx=".687"/><rect fill="#3F3D56" x="1.04" y=".012" width="83.894" height="171.501" rx="11.697"/><rect fill="#E5E7EB" x="34.896" y="5.133" width="11.717" height="2.392" rx="1.161"/><ellipse fill="#E5E7EB" cx="49.731" cy="6.329" rx="1.35" ry="1.358"/></g><path d="M190.336 5.719h-9.6v1.17c-.001 3.047-2.456 5.516-5.485 5.516h-30.605c-3.029 0-5.484-2.47-5.485-5.516V5.72h-9.007c-3.677 0-6.659 3-6.659 6.7v149.14c0 3.7 2.982 6.7 6.66 6.7h60.18c3.678 0 6.66-3 6.66-6.7V12.418c0-3.7-2.982-6.7-6.66-6.7z" fill="#FFF"/><g opacity=".4" transform="translate(210.195 158.024)" fill="#F1F4F6"><ellipse cx="7.655" cy="5.863" rx="7.567" ry="1.329"/><path d="M10.782 3.689c.345-.292.597-.686.723-1.13.093-.45-.093-.989-.505-1.153-.464-.183-.958.15-1.333.482-.376.332-.805.722-1.296.65a2.093 2.093 0 0 0 .61-1.926.8.8 0 0 0-.17-.388c-.257-.287-.723-.164-1.029.06-.978.723-1.252 2.098-1.259 3.34-.097-.448-.014-.915-.016-1.375-.002-.46-.125-.963-.498-1.218A1.466 1.466 0 0 0 5.25.848c-.44-.017-.928.029-1.231.36-.373.417-.276 1.113.048 1.57.325.458.819.745 1.275 1.06a2.9 2.9 0 0 1 .91.9c.027.052.05.106.066.162h2.759a7.646 7.646 0 0 0 1.704-1.211z"/></g><g opacity=".4" transform="translate(90.795 152.606)" fill="#F1F4F6"><ellipse cx="7.567" cy="5.807" rx="7.567" ry="1.329"/><path d="M10.696 3.633c.346-.292.597-.687.721-1.132.093-.448-.09-.987-.505-1.15-.464-.184-.958.148-1.331.48-.373.333-.807.723-1.296.65a2.105 2.105 0 0 0 .61-1.926.83.83 0 0 0-.17-.39c-.257-.284-.723-.161-1.031.063-.978.722-1.252 2.095-1.256 3.337-.1-.447-.017-.915-.019-1.375-.002-.46-.123-.963-.496-1.204a1.452 1.452 0 0 0-.76-.185c-.439-.017-.928.029-1.229.364-.373.416-.276 1.112.049 1.57.324.457.818.741 1.272 1.06.365.224.676.532.909.9.028.051.051.105.07.161H8.99a7.716 7.716 0 0 0 1.706-1.223z"/></g><path fill="#D6D8E0" d="M129.495 18.06H141.195V30.099999999999998H129.495z"/><path fill="#D6D8E0" d="M150.195 18.963H175.095V21.371000000000002H150.195z"/><path fill="#D6D8E0" d="M150.195 22.575H191.295V24.983H150.195z"/><path fill="#D6D8E0" d="M150.195 26.789H191.295V29.197000000000003H150.195z"/><path fill="#D6D8E0" d="M129.495 39.732H141.195V51.772H129.495z"/><path fill="#D6D8E0" d="M150.195 40.635H175.095V43.043H150.195z"/><path fill="#D6D8E0" d="M150.195 44.849H191.295V47.257H150.195z"/><path fill="#D6D8E0" d="M150.195 48.762H191.295V51.17H150.195z"/><path fill="#D6D8E0" d="M129.495 61.705H141.195V73.745H129.495z"/><path fill="#D6D8E0" d="M150.195 62.608H175.095V65.01599999999999H150.195z"/><path fill="#D6D8E0" d="M150.195 66.521H191.295V68.929H150.195z"/><path fill="#D6D8E0" d="M150.195 70.434H191.295V72.842H150.195z"/><path fill="#D6D8E0" d="M129.795 83.678H141.49499999999998V95.71799999999999H129.795z"/><path fill="#D6D8E0" d="M150.495 84.581H175.395V86.989H150.495z"/><path fill="#D6D8E0" d="M150.495 88.494H191.595V90.902H150.495z"/><path fill="#D6D8E0" d="M150.495 92.708H191.595V95.116H150.495z"/><path fill="#D6D8E0" d="M129.795 105.65H141.49499999999998V117.69H129.795z"/><path fill="#D6D8E0" d="M150.495 106.553H175.395V108.961H150.495z"/><path fill="#D6D8E0" d="M150.495 110.767H191.595V113.175H150.495z"/><path fill="#D6D8E0" d="M150.495 114.379H191.595V116.787H150.495z"/><path fill="#D6D8E0" d="M129.795 127.623H141.49499999999998V139.663H129.795z"/><path fill="#D6D8E0" d="M150.495 128.225H175.395V130.63299999999998H150.495z"/><path fill="#D6D8E0" d="M150.495 132.439H191.595V134.84699999999998H150.495z"/><path fill="#D6D8E0" d="M150.495 136.352H191.595V138.76H150.495z"/><path fill="#D6D8E0" d="M130.095 149.596H141.795V161.636H130.095z"/><path fill="#D6D8E0" d="M150.795 150.499H175.695V152.90699999999998H150.795z"/><path fill="#D6D8E0" d="M150.795 154.412H191.89499999999998V156.82H150.795z"/><path fill="#D6D8E0" d="M150.795 158.325H191.89499999999998V160.73299999999998H150.795z"/><path fill="url(#b)" d="M112.695 57.792H214.095V83.076H112.695z"/><path fill="#FFF" d="M110.295 54.782H210.79500000000002V78.862H110.295z"/><path fill="#6C63FF" d="M129.795 60.802H141.49499999999998V72.842H129.795z"/><g opacity=".5" transform="translate(150.495 61.404)" fill="#3E90FF"><path d="M0.13 0.08H24.985V2.358H0.13z"/><path d="M0.13 4.066H41.084V6.343999999999999H0.13z"/><path d="M0.13 8.053H41.084V10.331000000000001H0.13z"/></g><path d="M146.11 76.256c-.631-.629-1.68-.837-2.438-.374-.59.358-.914 1.024-1.211 1.653-.434.935-1.07 1.809-1.264 2.819-.536 2.784-2.735 4.946-3.616 7.637-.316.96-.464 1.991-.963 2.868-.235.384-.499.75-.788 1.094a30.834 30.834 0 0 0-3.016 4.635c-.5.098-.946.526-1.373.86-.546.429-1.18.731-1.855.886a1.743 1.743 0 0 0-.761.281c-.32.269-.364.753-.624 1.078a1.665 1.665 0 0 1-.696.467c0-.082-.011-.164-.014-.248a48.601 48.601 0 0 1-.018-1.302 4.924 4.924 0 0 0-.014-6.353c.018-.677.108-1.35.267-2.008.08-.32.07-.713-.188-.921-.128-.1-.293-.138-.43-.234a1.882 1.882 0 0 1-.463-.594 2.493 2.493 0 0 0-3.15-.81c-.837.443-1.345 1.331-2.088 1.935-.38.308-.818.54-1.199.85a5.025 5.025 0 0 0-1.551 2.544 14.675 14.675 0 0 0-.423 3.001 2.73 2.73 0 0 0 .035.912c.075.25.19.488.341.701a7.824 7.824 0 0 0 2.883 2.77c.005.06.005.12 0 .18 0 .094-.03.185-.05.278l-.135-.037c-.497-.112-1.032-.098-1.478-.348-.76-.43-.99-1.48-1.719-1.962a1.312 1.312 0 0 0-.194-.105 13.21 13.21 0 0 0-.747-3.897c-.214-.598-.476-1.208-.443-1.846.028-.592.308-1.136.559-1.672.874-1.846 1.487-3.805 2.087-5.757.385-1.227.772-2.454 1.16-3.682.378-.282.72-.61 1.018-.977a5.229 5.229 0 0 0 1.18-2.555 3.64 3.64 0 0 0-.65-2.702 1.548 1.548 0 0 0-1.091-.673 1.412 1.412 0 0 0-1.018.467c-.385.442-.681.955-.872 1.51-.38.905-.766 1.845-.729 2.826.03.814.332 1.723-.139 2.385-1.542 2.167-2.707 4.659-3.93 7.029a12.622 12.622 0 0 0-.792 1.762 9.89 9.89 0 0 0-.415 3.04c-.012 1.928.25 3.847.51 5.76.118.862.269 1.778.675 2.524-.266.924-.406 1.88-.415 2.842-.011.222.024.444.102.652.136.242.31.462.512.65.55.63.804 1.468.696 2.3a6.573 6.573 0 0 0 .206 2.305c.464 2.076.928 4.15 1.3 6.242.087.389.117.79.088 1.187-.072.566-.383 1.104-.316 1.672.067.263.116.53.149.799a1.988 1.988 0 0 1-.14.598c-.528 1.55-1.95 5.103-1.934 6.744l.371-.088c-.373 2.13-1.248 4.165-1.707 6.288a21.198 21.198 0 0 0-.431 4.703c.03.71.018 1.42-.038 2.127-.071.629-.232 1.244-.32 1.87-.1.84-.137 1.686-.111 2.532a26.05 26.05 0 0 0 .232 3.974c.355 2.244-.267 4.474-.436 6.739a40.81 40.81 0 0 1-.534 4.727c-.127.659-.287 1.313-.375 1.98-.26 1.977.118 4.015-.29 5.967-.193.914-.536 1.94-.03 2.721.16.246.39.437.563.674a.86.86 0 0 1 .163.825c-.1.215-.332.355-.39.584-.093.36.28.655.615.809l.095.037a.872.872 0 0 0 .18.702c.199.188.446.318.713.374l4.379 1.337c.976.299 2.039.593 3.015.35.022.14.082.272.174.38.198.188.445.317.712.373l4.347 1.328c1.118.341 2.345.678 3.419.215.307-.128.577-.333.784-.596a2.099 2.099 0 0 0 .278-1.746 1.427 1.427 0 0 0-.422-.781 1.846 1.846 0 0 0-1.012-.334c-.309-.01-.612-.09-.886-.234a.64.64 0 0 1-.201-.213c.25-.25.493-.508.728-.776-.19-.065-.258-.341-.276-.542-.276-2.978.837-5.889 1.26-8.848.213-1.485.25-2.99.11-4.484-.05-.563-.127-1.124-.15-1.69-.11-2.945 1.287-5.778 1.239-8.726-.024-1.38.695-2.74 1.046-4.074.306-1.183.315-2.422.322-3.647l.056-9.645c0-1.304 0-2.639-.413-3.87a4.946 4.946 0 0 1-.167-2.119c1.18-.526 2.298-1.304 3.56-1.169.336-.9-.062-3.899-.378-4.808a20.832 20.832 0 0 1-.696-11.136c.286-1.33-.106-2.745.211-4.07.059-.311.176-.608.346-.874a.926.926 0 0 1 .796-.423c0-.811-.017-1.637-.07-2.46a5.83 5.83 0 0 0 1.292-1.498c.696-1.169 1.092-2.485 1.572-3.756.852-2.244 2.014-4.35 2.99-6.546.977-2.195 1.072-4.595 1.856-6.867a5.15 5.15 0 0 1 2.493-2.894c.464-.234.958-.402 1.294-.786.255-.32.411-.707.45-1.115.147-.9-.129-1.82-.746-2.487zm-27.138 96.573c.095-.105.188-.21.276-.325-.292-.047-.65-.262-.656-.561.02-.3.085-.595.19-.877.137-.507.16-1.04.065-1.557-.065-.362-.186-.7-.26-1.07-.07-.4-.117-.805-.14-1.211a20.169 20.169 0 0 0-.843-4.292c-.42-1.353.155-2.723.303-4.133.072-.668.04-1.358.272-1.987.137-.374.362-.701.498-1.08.318-.867.13-1.832-.065-2.737 1.374-2.508 1.828-5.5 2.345-8.324l.873-4.752c.127-.702.269-1.44.695-2.006a24.83 24.83 0 0 1 .53 6.39 9.562 9.562 0 0 0 .022 1.87c.107.681.388 1.324.55 1.993.362 1.475.15 3.024.232 4.541.03.613.11 1.225.135 1.838.113 2.71-.787 5.344-1.675 7.903-.545 1.569-.666 3.352-.928 4.996-.246 1.573-.49 3.148-.614 4.736-.038.483-.068.981-.126 1.472a3.79 3.79 0 0 0-.452-.072c-.31-.01-.612-.09-.886-.234a1.04 1.04 0 0 1-.341-.521z" fill="url(#c)"/><path d="M128.273 175.868c.364.01.717.131 1.017.347.22.216.37.5.425.81.17.62.067 1.285-.28 1.816-.208.273-.48.485-.789.616-1.08.488-2.314.134-3.439-.22l-4.404-1.39a1.457 1.457 0 0 1-.717-.389 1.055 1.055 0 0 1-.018-1.185 2.23 2.23 0 0 1 .933-.779c1.372-.699 2.916-.86 4.433-.89.56-.011 1.11-.138 1.49.313.201.245.166.504.467.711.273.15.575.231.882.24z" fill="#3F3D56"/><path d="M120.173 173.458c.364.008.717.128 1.017.345.22.217.368.5.425.811.17.62.067 1.285-.28 1.817-.208.274-.48.487-.789.618-1.08.49-2.314.132-3.439-.222l-4.404-1.391a1.439 1.439 0 0 1-.717-.389 1.057 1.057 0 0 1-.018-1.186c.236-.345.56-.615.933-.78 1.372-.699 2.914-.86 4.421-.89.558 0 1.11-.139 1.49.313.201.245.166.506.467.712.277.15.582.233.894.242z" fill="#3F3D56"/><path d="M123.824 125.744a54.41 54.41 0 0 0-7.82-.219 1.537 1.537 0 0 0-.506.08c-.575.232-.663.983-.72 1.598-.219 2.488-1.32 4.807-1.868 7.247a20.652 20.652 0 0 0-.434 4.662c.03.7.018 1.4-.038 2.098-.072.625-.233 1.233-.322 1.865-.1.832-.138 1.67-.112 2.508-.024 1.315.054 2.63.233 3.932.358 2.224-.268 4.429-.439 6.676a39.86 39.86 0 0 1-.537 4.683c-.128.653-.29 1.3-.378 1.96-.262 1.96.119 3.981-.292 5.914-.194.904-.54 1.92-.03 2.694.16.245.392.434.567.667a.845.845 0 0 1 .163.818c-.1.212-.334.352-.392.578-.093.357.283.65.619.802 2.534 1.14 5.802.336 7.511-1.853-.294-.047-.654-.259-.66-.555.02-.297.085-.59.19-.87.14-.502.162-1.03.066-1.542-.065-.357-.187-.7-.261-1.06a9.802 9.802 0 0 1-.14-1.199 19.69 19.69 0 0 0-.85-4.252c-.423-1.34.156-2.697.305-4.095.073-.66.04-1.345.274-1.967.137-.371.364-.7.502-1.07.32-.86.13-1.814-.066-2.711 1.383-2.487 1.84-5.45 2.362-8.247l.878-4.709c.128-.699.27-1.424.7-1.986.456 2.08.635 4.208.533 6.334a9.305 9.305 0 0 0 .023 1.839c.108.673.39 1.31.554 1.974.364 1.46.152 2.995.234 4.499.03.606.11 1.212.135 1.82.114 2.683-.792 5.294-1.686 7.828-.55 1.554-.67 3.321-.935 4.948-.247 1.56-.492 3.119-.618 4.692-.115 1.445-.164 3.01-1.066 4.145.823.533 1.675 1.077 2.637 1.26a4.899 4.899 0 0 0 3.254-.626 10.271 10.271 0 0 0 2.57-2.182c-.192-.065-.26-.34-.279-.538-.278-2.95.843-5.828 1.268-8.765a18.61 18.61 0 0 0 .113-4.443c-.052-.557-.129-1.111-.152-1.67-.11-2.92 1.296-5.728 1.247-8.646-.023-1.366.7-2.716 1.053-4.038.309-1.165.318-2.398.325-3.61l.056-9.557c0-1.294 0-2.615-.416-3.837-.514-1.466.073-3.154.161-4.704a19.474 19.474 0 0 1-7.516.83z" fill="#3F3D56"/><path d="M132.052 98.201a30.425 30.425 0 0 1 3.534-5.621c.287-.34.55-.7.785-1.079.496-.865.644-1.885.958-2.834.877-2.66 3.065-4.796 3.598-7.546.194-.997.827-1.86 1.258-2.79.296-.623.619-1.278 1.205-1.627.755-.465 1.798-.249 2.426.372a2.91 2.91 0 0 1 .74 2.453 2.056 2.056 0 0 1-.447 1.102c-.335.378-.836.55-1.288.778a5.08 5.08 0 0 0-2.481 2.857c-.771 2.246-.868 4.622-1.847 6.787-.978 2.164-2.128 4.245-2.975 6.46-.478 1.258-.863 2.557-1.565 3.72-.702 1.162-1.805 2.136-3.13 2.31a7.97 7.97 0 0 0-.388-2.473c-.279-.923-.803-2.013-.383-2.869zm-14.57 1.727a13.246 13.246 0 0 0-.745-4.875c-.211-.598-.471-1.206-.439-1.841.028-.59.306-1.133.554-1.666.867-1.841 1.474-3.795 2.07-5.742l1.15-3.67a5.799 5.799 0 0 0 1.01-.973 5.24 5.24 0 0 0 1.17-2.547 3.649 3.649 0 0 0-.646-2.696 1.523 1.523 0 0 0-1.081-.668 1.38 1.38 0 0 0-1.01.469c-.38.44-.674.951-.864 1.506-.377.9-.76 1.839-.722 2.815.03.812.328 1.717-.138 2.376-1.53 2.16-2.684 4.645-3.896 7.007-.306.564-.57 1.152-.786 1.757a9.922 9.922 0 0 0-.412 3.036c-.011 1.923.248 3.835.506 5.742.16 1.192.377 2.492 1.262 3.285.923-1.195 1.847-2.372 3.018-3.315z" fill="#FFDFC4"/><ellipse fill="#FFDFC4" cx="123.495" cy="96.019" rx="4.8" ry="4.816"/><path d="M121.203 101.186c-.116.863-.585 1.631-1.042 2.375-.278.459-.627.948-1.166.998 1.4.725 2.873 1.308 4.393 1.74a5.07 5.07 0 0 0 1.607.254 3.976 3.976 0 0 0 1.336-.337 6.559 6.559 0 0 0 3.764-4.36 8.87 8.87 0 0 1-1.796-.136c-.33-.06-.688-.156-.881-.424a1.38 1.38 0 0 1-.182-.769 40.565 40.565 0 0 1 0-2.382 9.706 9.706 0 0 0-3.517.425c-.466.149-.932.33-1.41.447-.294.071-1.103 0-1.32.168-.329.254.3 1.416.214 2z" fill="#FFDFC4"/><path d="M123.414 103.895a3.06 3.06 0 0 0-2.319-2.718c-.5-.11-1.04-.098-1.489-.347-.766-.43-.998-1.476-1.732-1.958-.734-.48-1.78-.213-2.421.397-.64.61-.966 1.474-1.227 2.32a11.72 11.72 0 0 0-.63 3.555c-.01.222.025.444.104.652.138.242.312.462.516.65a2.89 2.89 0 0 1 .702 2.291 6.514 6.514 0 0 0 .208 2.303c.467 2.068.934 4.138 1.308 6.224.088.385.118.78.09 1.174-.073.563-.386 1.1-.319 1.664.067.263.117.53.15.8a1.948 1.948 0 0 1-.14.594c-.533 1.55-1.966 5.093-1.95 6.73 2.49-.641 6.16-.785 8.728-.794.708-.01 1.416.022 2.12.094 1.69.18 3.42.676 5.058.218 1.52-.425 2.868-1.643 4.44-1.488.34-.899-.062-3.891-.38-4.797a20.581 20.581 0 0 1-.701-11.11c.287-1.328-.108-2.736.212-4.057.059-.311.177-.608.348-.873.177-.27.48-.43.802-.423.03-2.122-.167-4.24-.584-6.32-.157-.74-.482-1.613-1.223-1.74-.668-.113-1.231.453-1.767.87a4.82 4.82 0 0 1-1.87.883 1.755 1.755 0 0 0-.766.28c-.323.267-.367.75-.629 1.077-.467.584-1.512.533-1.844 1.206-.075.201-.134.408-.178.618-.156.399-.423.745-.769.997a4.333 4.333 0 0 1-1.848 1.028z" fill="#E75A42"/><path d="M127.35 90.71c.082-.322.07-.706-.188-.922-.128-.1-.294-.138-.431-.235a1.878 1.878 0 0 1-.466-.594 2.514 2.514 0 0 0-3.169-.807c-.84.445-1.35 1.333-2.095 1.935-.382.31-.822.54-1.204.848a5.023 5.023 0 0 0-1.558 2.543 14.6 14.6 0 0 0-.421 3.002c-.04.304-.028.612.035.912.076.248.192.483.342.693.766 1.176 1.781 2.245 3.05 2.85 1.27.603 2.813.704 4.066.072a.725.725 0 0 0 .312-.254.892.892 0 0 0 .046-.543 3.756 3.756 0 0 1 .408-2.078c.232-.47.58-.874.768-1.363a4.885 4.885 0 0 0 .219-1.687c.018-1.474-.082-2.948.286-4.372z" fill="#2D293D"/><path fill="#3E90FF" d="M129.795 60.802H141.49499999999998V72.842H129.795z"/><path d="M133.135 67.201c-.028-.125-.18-.223-.26-.338a.527.527 0 0 1-.092-.245v.136a.621.621 0 0 0 .096.398c.064.093.176.175.232.273a.422.422 0 0 0 .024-.224z" opacity=".1" fill="#000"/><g transform="translate(186.195 89.698)"><ellipse fill="#2F2E41" cx="26.1" cy="15.652" rx="6.9" ry="6.923"/><path fill="#FFDFC4" d="M33.1875 101.914576L34.5 107.757489 31.3125 107.757489 30 101.135521z"/><path fill="#FFDFC4" d="M17.7 102.038516L17.7 107.376224 14.7 107.757489 14.7 102.038516z"/><path d="M33.9 42.628s-.382 8.072-.764 8.635c-.381.564-3.818 8.636-3.818 8.636L27.6 54.642s2.673-4.317 2.29-6.758c-.38-2.44-.14-5.443-.14-5.443l4.15.187z" fill="#FFDFC4"/><ellipse fill="#FFDFC4" cx="23.25" cy="17.909" rx="5.25" ry="5.267"/><path d="M27.564 18.662s-.185 7.132 1.105 8.202c1.29 1.07-7.369.179-7.369.179s1.842-4.993.368-6.063c-1.473-1.07 5.896-2.318 5.896-2.318z" fill="#FFDFC4"/><path d="M20.682 27.157s1.11-2.047 2.592-1.861c1.48.186 6.294.558 6.48.93.184.373.74 1.676 1.11 2.048.37.372 3.147.93 3.332 3.164.185 2.234-6.664 15.822-6.664 15.822s.925 3.164.74 3.908c-.185.745.926 2.978.74 3.91-.184.93 2.778 6.514 1.297 13.773v11.726s4.998 20.289 3.517 21.778c-1.48 1.489-6.48.558-7.405 0-.926-.558-4.813-28.665-4.813-28.665l-1.852-9.492-.185 20.847s.37 17.496-.925 18.054c-1.296.559-6.295.745-6.665-.372-.289-.87-1.703-24.046-2.312-34.205-.211-3.506.063-7.025.815-10.456.77-3.514 1.889-7.642 3.163-9.317 2.407-3.165 3.888-13.216 3.888-13.216l-3.147-5.77s1.851-1.861 2.962-1.861c1.11 0 3.332-.745 3.332-.745z" fill="#EC4C77"/><path d="M33.13 30.1l1.008.67s.712 12.015.139 12.76c-.574.747-4.56.383-4.86-.274-.301-.658 3.713-13.156 3.713-13.156z" fill="#FF7292"/><path d="M16.686 40.776c.54 3.793 1.015 7.169-1.751 10.223a52.063 52.063 0 0 1-9.338 8.176c-.34.908-5.319 7.577-5.572 4.917-.254-2.66 1.467-4.746 3.912-6.996s5.865-7.13 7.795-9.809c1.93-2.678 1.136-4.349 1.069-6.586-.067-2.237 3.126.102 3.885.075z" fill="#FFDFC4"/><path d="M14.62 104.146s-.186 2.082-.744 2.64c-.558.558-2.046 1.302-1.86 3.348.186 2.045 1.395 2.138 1.395 2.138l-.093-.464.558.186.093.278h5.208s.093-1.952-.093-2.882c-.186-.93-.186-5.393-.744-5.207-.558.186-2.046.372-2.418 1.116-.372.744-1.488.483-1.302-1.153zm18.76 0s.186 2.082.744 2.64c.558.558 2.046 1.302 1.86 3.348-.186 2.045-1.395 2.138-1.395 2.138l.093-.464-.558.186-.093.278h-5.208s-.093-1.952.093-2.882c.186-.93.186-5.393.744-5.207.558.186 2.046.372 2.418 1.116.372.744 1.488.483 1.302-1.153z" fill="#2F2E41"/><path d="M17.387 28.896l-2.665.558s0 4.09-.76 5.764c-.762 1.674-2.095 5.579-1.524 5.765.571.186 5.9 2.79 6.282 1.302.38-1.488 1.332-13.39-1.333-13.39z" fill="#FF7292"/><ellipse fill="#2F2E41" cx="33" cy="6.923" rx="6.9" ry="6.923"/><path d="M38.896 12.672a7.042 7.042 0 0 1-6.287.925c-2.125-.708-3.768-2.382-4.409-4.491.326 2.54 2.08 4.684 4.538 5.546a7.03 7.03 0 0 0 7.098-1.462 6.702 6.702 0 0 0 1.876-6.869c.316 2.462-.764 4.897-2.816 6.35z" fill="#2F2E41"/><ellipse fill="#2F2E41" cx="27.3" cy="17.006" rx="4.8" ry="4.966"/><ellipse fill="#2F2E41" cx="23.55" cy="15.2" rx="4.35" ry="3.461"/><ellipse fill="#FFDFC4" cx="21.9" cy="18.963" rx="1" ry="1.505"/></g><g transform="translate(46.095 105.049)"><path d="M6.783 95.884c.34.764.917 1.396 1.645 1.804.725.408 1.413.88 2.055 1.41.743.709 1.226 1.688 2.099 2.231.332.195.69.343 1.061.442.426.132.864.221 1.308.266a9.2 9.2 0 0 0 3.377-.582 3.123 3.123 0 0 0 1.013-.446c.14-.112.269-.237.386-.373.239-.236.42-.525.53-.844a.692.692 0 0 0-.048-.51 1.17 1.17 0 0 0-.43-.411 7.274 7.274 0 0 0-.964-.538 4.946 4.946 0 0 1-1.264-.675 2.957 2.957 0 0 1-.613-.829 8.053 8.053 0 0 1-.695-1.673 5.465 5.465 0 0 0-.386-1.14c-.207-.382-.54-.712-.762-1.085.116 0 .237 0 .352-.049a3.321 3.321 0 0 0-.386-1.716c.483.038.71-.597.632-1.067-.077-.47-.303-.97-.1-1.397.146-.238.33-.451.544-.63.767-.815.743-2.056 1.062-3.123a9.08 9.08 0 0 1 .796-1.736c.921-1.673 1.346-3.768 2.831-4.975l1.337-1.086a.571.571 0 0 0 .207-.248c.077-.208-.087-.426-.077-.65.024-.392.555-.552.733-.906a2.25 2.25 0 0 0 .13-.539c.14-.615.739-.998 1.168-1.454.656-.71.968-1.676.854-2.638a2.247 2.247 0 0 1-.039-.718c.05-.166.114-.328.189-.485.147-.51.201-1.042.159-1.57.027-.84.128-1.677.304-2.498l6.59-1.503c.043.048.082.097.13.145.584.597.873 1.455 1.447 2.076l.753.834c.145.16.294.373.207.567-.087.194-.198.199-.29.305a.521.521 0 0 0 .445.82 1.003 1.003 0 0 0 .516 1.498 4.017 4.017 0 0 1-.55.844.7.7 0 0 1 .145.427 2.034 2.034 0 0 1-.097.271c-.038.205-.02.416.053.611a9.225 9.225 0 0 1 0 4.752c-.068.213-.11.433-.125.655 0 .186.028.37.082.548.222.8.666 1.639.357 2.425a5.007 5.007 0 0 0-.26.567c-.174.582.226 1.154.443 1.721.24.784.312 1.61.212 2.425-.053 1.125-.11 2.245-.164 3.365-.025.204-.004.412.063.606.14.265.385.456.675.524-.067.228-.135.456-.212.679a.4.4 0 0 0-.675-.03.72.72 0 0 0-.087.32c.01.81.142 1.612.39 2.382.034.123.045.25.034.378-.032.131-.076.26-.13.383a.57.57 0 0 0-.029.097c-.06.388-.024.784.106 1.154.035.239.153.457.333.616.132.08.281.126.434.136 2.306.266 4.555-1.242 6.86-.97.483.053.937.18 1.41.228a7.363 7.363 0 0 0 1.664-.083 35.99 35.99 0 0 0 2.296-.383 5.691 5.691 0 0 0 1.674-.538c.53-.267.92-.749 1.076-1.324a.999.999 0 0 0-.097-.747.861.861 0 0 0-.193-.203 2.07 2.07 0 0 0-.598-.286l-.892-.325a5.343 5.343 0 0 0-1.332-.35c-.333-.028-.675 0-1.008 0-1.177-.062-2.214-.741-3.184-1.391l-1.322-.883a.85.85 0 0 0-.902-.15l-.183.068.815-.456c.039-3.995.029-7.99-.029-11.982.023-.992-.07-1.983-.28-2.953-.145-.553-.299-1.275.183-1.586.126-.431-.13-.863-.246-1.29-.115-.426.049-1.042.483-1.047-.444-.786-.43-1.736-.449-2.638 0-.742-.058-1.455-.145-2.216a6.294 6.294 0 0 0-.762-2.609l6.503-1.484-.212-.945.965-.218-5.24-23.184a.616.616 0 0 0 .401-.553c-.024-.228-.246-.436-.173-.654.043-.131.173-.204.255-.316a.755.755 0 0 0-.082-.863.384.384 0 0 1-.091-.213.423.423 0 0 1 .048-.15 1.138 1.138 0 0 0-.323-1.348.438.438 0 0 0-.189-.097c-.154 0-.289.048-.443 0-.155-.049-.16-.136-.333-.15h-.053l-1.983-8.773c.149-.423.265-.858.347-1.3a4.151 4.151 0 0 0-.207-2.351c.424-.23.81-.522 1.148-.868.245-.2.31-.549.154-.825a5.87 5.87 0 0 0-1.93-2.652c-.274-.209-.926-.761-1.326-.64.1-.146.206-.286.318-.422.242-.239.454-.506.632-.795a5.544 5.544 0 0 0 3.286-6.304 1.69 1.69 0 0 0-.063-.223.89.89 0 0 0 .743-.272.974.974 0 0 0 .087-.97 7.727 7.727 0 0 0-.483-.872c-.362-.66-.275-1.513-.646-2.13A7.096 7.096 0 0 0 41.219.905 4.205 4.205 0 0 0 37.707.1a7.617 7.617 0 0 0-3.305 1.668c-.28.255-.59.472-.926.645-.55.252-1.226.243-1.684.635-.608.52-.53 1.455-.299 2.231.232.776.574 1.566.309 2.323-.106.22-.194.45-.266.684-.035.443.079.885.324 1.255.06-.086.112-.179.154-.276.002.01.002.02 0 .03.034.125.072.251.106.377a.375.375 0 0 0-.159.034c-.227.102-.328.369-.516.534-.188.165-.656.271-.748.577-.043.145 0 .305-.053.446-.116.276-.521.276-.733.485a.623.623 0 0 0-.121.63c.039.117.094.228.164.33a.702.702 0 0 0 .043.422l-2.691.654c-.43.09-.85.229-1.25.413a1.934 1.934 0 0 0-.921.906c0 .049-.049.112-.102.131a.216.216 0 0 1-.135 0 2.4 2.4 0 0 0-1.394.068 7.543 7.543 0 0 0-3.565 2.619 1.321 1.321 0 0 0-.343.679c-.024.29.135.615 0 .868l-.14.058a6.846 6.846 0 0 0-1.143.485c-.39.232-.733.538-1.1.81-1.5 1.105-3.483 1.653-4.544 3.18-.348.485-.599 1.11-1.13 1.421-.247.111-.489.236-.723.374-.444.344-.482.94-.584 1.508L.752 29.47l.213.941-.965.218 8.76 38.75 8.086-1.843c.004.185.03.369.078.548.086.566.274 1.111.554 1.61a.926.926 0 0 0-.636.858c-.044.373.024.761-.053 1.13-.145.66-.714 1.13-1.187 1.62-2.152 2.22-2.605 5.498-3.705 8.369-.516 1.338-1.187 2.623-1.525 4.01-.386 1.576-.41 3.395-1.645 4.486a.867.867 0 0 0-.28.33.531.531 0 0 0 0 .3c.075.287.235.544.459.737l-.058.112a.442.442 0 0 0-.145 0c-.25 0-.39.32-.482.514a5.564 5.564 0 0 0-.637 2.187.62.62 0 0 0-.212 0 .903.903 0 0 0-.652.538c-.097.33-.075.684.063.999zm31.42-80.437h-.096c.076-.228.171-.449.285-.66a4.07 4.07 0 0 0-.188.66zm-25.81 77.455a.8.8 0 0 1-.274.421h-.024a1.25 1.25 0 0 1 .048-.155l.106-.305.145.039z" fill="url(#d)"/><path d="M40.792 91.152c-1.45.569-2.995 1.076-4.541.927-.237 0-.527-.123-.551-.374a.61.61 0 0 1 .053-.256c.36-.994.62-2.024.778-3.076a.248.248 0 0 1 .058-.143.208.208 0 0 1 .145-.036c.705 0 1.377.338 2.082.374.356.018.712-.038 1.048-.164.295-.107.648-.471.923-.512.058 1.07-.106 2.147.005 3.26zm-29.248 3.663c-1.203-.462-2.452-.952-3.32-1.884a.385.385 0 0 1-.122-.197.443.443 0 0 1 .036-.225 8.764 8.764 0 0 1 1.68-2.811 6.663 6.663 0 0 1 1.523.834c.325.21 1.152.49 1.248.883.061.235-.157.559-.243.77-.112.29-.218.579-.315.873a10.632 10.632 0 0 0-.487 1.757z" fill="#3F3D56"/><path d="M35.48 95.23c.036.239.151.457.328.618.13.084.28.13.433.136 2.268.277 4.474-1.225 6.742-.972.482.054.925.185 1.387.229.548.037 1.1.01 1.642-.078a32.167 32.167 0 0 0 2.258-.375 5.468 5.468 0 0 0 1.643-.53 2.116 2.116 0 0 0 1.059-1.326c.06-.254.023-.52-.101-.749a.862.862 0 0 0-.193-.204 2.082 2.082 0 0 0-.587-.292l-.881-.326a5.258 5.258 0 0 0-1.31-.354c-.328-.034-.665 0-.992 0-1.16-.073-2.182-.754-3.14-1.41l-1.3-.89a1.089 1.089 0 0 0-.434-.209 1.045 1.045 0 0 0-.457.059 6.15 6.15 0 0 0-2.644 1.628 4.051 4.051 0 0 1-.611.579 2.555 2.555 0 0 1-2.033.204c-.303-.083-.26-.18-.433-.413-.173-.234-.482-.336-.67-.044a.666.666 0 0 0-.086.32c.013.811.144 1.616.39 2.387.034.124.047.252.039.38-.033.131-.076.26-.13.384a.715.715 0 0 0-.025.097c-.06.387-.023.783.106 1.152z" fill="#65617D"/><path d="M35.535 95.498c.036.248.15.475.327.644.13.087.278.136.432.142 2.26.289 4.457-1.278 6.717-1.014.48.055.922.192 1.382.238a6.816 6.816 0 0 0 1.637-.081 30.737 30.737 0 0 0 2.25-.39 5.278 5.278 0 0 0 1.636-.553 2.19 2.19 0 0 0 1.056-1.385 1.15 1.15 0 0 0-.1-.78.884.884 0 0 0-.193-.213c-.067.299-.076.679-.124.826a1.562 1.562 0 0 1-.82.979 2.313 2.313 0 0 1-.917.091c-2.001-.04-4.017.436-5.994.122a13.372 13.372 0 0 0-2.044-.31c-.694.053-1.383.158-2.063.315-1.085.162-2.193.07-3.287.147-.063.41-.026.83.105 1.222z" fill="#3F3D56"/><path d="M6.433 95.998c.341.744.914 1.362 1.637 1.767.721.4 1.404.865 2.04 1.387.735.692 1.215 1.653 2.087 2.184a4.26 4.26 0 0 0 1.05.435c.422.129.855.218 1.294.265a9.162 9.162 0 0 0 3.351-.558c.36-.084.702-.232 1.008-.436.131-.113.251-.238.358-.374a2.09 2.09 0 0 0 .518-.824.682.682 0 0 0-.043-.474 1.185 1.185 0 0 0-.426-.402 7.568 7.568 0 0 0-.97-.526 4.946 4.946 0 0 1-1.254-.668 2.899 2.899 0 0 1-.61-.81 7.75 7.75 0 0 1-.688-1.638 5.332 5.332 0 0 0-.387-1.113c-.305-.545-.872-.976-.969-1.591a.424.424 0 0 0-.082-.256.378.378 0 0 0-.237-.08 4.056 4.056 0 0 0-1.148 0 1.294 1.294 0 0 0-.92.61c-.112.218-.155.474-.364.625a.838.838 0 0 1-.343.09 2.918 2.918 0 0 1-1.69-.128 1.995 1.995 0 0 1-.994-1.269c-.038-.203 0-.435-.324-.407-.325.028-.383.313-.484.502a5.281 5.281 0 0 0-.625 2.136.644.644 0 0 0-.213 0 .886.886 0 0 0-.64.526c-.106.339-.082.704.068 1.027z" fill="#65617D"/><path d="M6.423 95.829c.342.764.916 1.4 1.641 1.816.723.412 1.408.89 2.044 1.426.738.711 1.22 1.7 2.093 2.245.33.196.684.347 1.054.448.422.132.856.223 1.296.272a8.98 8.98 0 0 0 3.36-.574 3.04 3.04 0 0 0 1.01-.448c.132-.116.252-.245.36-.385.236-.238.414-.528.519-.847a1.651 1.651 0 0 0-.723 0c-.486.137-.739.687-1.18.935-.627.36-1.404.034-2.122.03-.486 0-.937.13-1.403.087a3.533 3.533 0 0 1-1.142-.375 5.42 5.42 0 0 1-1.306-.794 6.944 6.944 0 0 1-.908-1.115 18.673 18.673 0 0 0-1.82-2.142 1.841 1.841 0 0 0-.335-.282 4.247 4.247 0 0 0-.408-.17 2.758 2.758 0 0 1-1.137-1.29 2.435 2.435 0 0 0-.296-.453.894.894 0 0 0-.64.54c-.12.352-.104.735.043 1.076z" fill="#3F3D56"/><path d="M38.055 13.981a5.092 5.092 0 0 0-.98 1.913c-.17.703-.894 6.007-.632 6.68-.723-.487-3.071-.028-3.804-.487-.304-.195-1.901-1.157-2.187-1.405-.285-.25-1.901-.532-2.13-.796-.86-.976 3.134-6.378 2.259-7.32a.213.213 0 0 1-.038-.317 7.92 7.92 0 0 1 1.207-1.332c.45-.407.734-.974.794-1.586.513.111 1.005.31 1.455.586 1.081.579 2.15 1.184 3.21 1.815.413.244 1.169.522 1.426.947.257.424-.31.966-.58 1.302z" fill="#A1616A"/><path d="M29.37 14.147c.892.34 1.749.764 2.559 1.267a4.443 4.443 0 0 1 1.873 1.881c.141.324.214.672.34 1.001.563 1.451 2.107 2.234 2.995 3.497.264.393.488.81.67 1.247a16.4 16.4 0 0 1 .854 2.549c.209.846-.485 1.62-.621 2.48a14.256 14.256 0 0 0 0 2.535 29.873 29.873 0 0 1-.34 4.787c-.417 3.347-2.111 12.728-2.529 16.08-3.645-.082-13.266 0-16.732-1.108-1.16-.372 5.34-9.024 4.17-9.246a.418.418 0 0 1-.437-.484c0-4.99 2.52-9.671 3.01-14.619.174-1.721.825-3.307 1.208-4.995.345-1.528.35-3.134.845-4.623.087-.304.227-.59.412-.847a3.32 3.32 0 0 1 .549-.527c.398-.333.786-.575 1.175-.875z" fill="#D7D9E1"/><ellipse fill="#FFDFC4" cx="36.6" cy="8.277" rx="5.4" ry="5.568"/><path d="M31.8 11.686a1.864 1.864 0 0 0-2.1.165c-.35.253-.501.7-.378 1.114l-2.668.652c-.429.085-.847.22-1.244.404a1.91 1.91 0 0 0-.908.905c-.025.054-.049.112-.102.131-.054.02-.088 0-.132 0a2.383 2.383 0 0 0-1.39.064 7.391 7.391 0 0 0-3.527 2.612 1.3 1.3 0 0 0-.34.676c0 .326.18.691 0 .974.573 2.515.243 5.06.223 7.643-.08.484-.266.944-.544 1.347a4.83 4.83 0 0 0-.573 1.494c-.2 1.382.811 2.72.627 4.106a6.739 6.739 0 0 1-.593 1.664 3.809 3.809 0 0 0-.355 2.048c.049.312.16.613.219.925.064.418.082.842.053 1.265 0 .783-.063 1.566-.112 2.35-.072 1.264-.238 2.651-1.156 3.527 2.668-.146 5.471-.336 7.716-1.79.316-.194.603-.43.855-.701.744-.832.924-2.01 1.07-3.114.227-1.232.276-2.49.145-3.736a4.092 4.092 0 0 1-.097-1.187c.097-.72.666-1.27 1.19-1.776.594-.53 1.101-1.151 1.502-1.84.397-.699.489-1.531.253-2.3-.132-.37-.36-.696-.486-1.076a.92.92 0 0 1 .306-1.04c1.744-.974 2.133-3.406 2.114-5.42a15.397 15.397 0 0 0-.438-3.046l-.413-1.946c.411-.594.562-1.33.418-2.039-.07-.199-.113-.407-.126-.618.032-.269.129-.526.282-.749.32-.523.56-1.093.709-1.688zm7.447 4.91c.123.6.285 1.192.483 1.772.101.215.241.407.357.613a3.93 3.93 0 0 1 .329 2.561 13.938 13.938 0 0 1-.783 2.505 3.415 3.415 0 0 0-.236.862c-.021.303-.008.609.038.91.144 1.218.204 2.445.18 3.672a7.058 7.058 0 0 1-.605 3.113.865.865 0 0 1-.44.478.974.974 0 0 1-.458 0l-1.487-.21a.9.9 0 0 1-.358-.096.842.842 0 0 1-.314-.479 7.935 7.935 0 0 1-.135-3.352c.391-3.385 1.178-6.737 1.164-10.142 0-.957-.217-2.355.285-3.222.203-.36.14-.21.483-.13.181.035.36.081.536.14.457.174.81.543.961 1.005z" fill="#3F3D56"/><path d="M36.102 23.706c.07 2.032.137 4.063.198 6.093l-5.649-.19a3.926 3.926 0 0 1 .101-1.715c.213-1.339-.086-2.708 0-4.062.083-1.032.402-2.03.484-3.063.034-.6 0-1.203 0-1.807.044-.598.13-1.192.256-1.778.128-.835.353-1.653.672-2.435.739.102 1.536.229 2.063.765.28.305.482.674.59 1.076.367 1.188.207 2.499.618 3.663.408 1.106.633 2.273.667 3.453zm-.549 27.26c-.038 1.212.669 2.303 1.279 3.35a27.565 27.565 0 0 1 2.271 4.97c.123.448.314.873.567 1.262.281.32.578.626.891.916.756.83 1.003 1.993 1.134 3.108a22.2 22.2 0 0 1 .15 2.216c.024.902 0 1.858.455 2.643-.446 0-.61.611-.484 1.043.126.431.373.863.252 1.295-.485.305-.32 1.028-.18 1.585.211.97.309 1.961.29 2.953.072 3.993.095 7.985.069 11.978-1.792 1.033-3.875 2.168-5.919 1.76a1.22 1.22 0 0 1-.93-.596 1.325 1.325 0 0 1-.063-.602l.15-3.365a5.952 5.952 0 0 0-.217-2.424c-.218-.568-.615-1.14-.446-1.722.058-.199.18-.373.257-.567.305-.771-.14-1.61-.359-2.425a1.83 1.83 0 0 1-.087-.553 3 3 0 0 1 .121-.654 9.297 9.297 0 0 0-.024-4.753 1.136 1.136 0 0 1-.053-.606c.04-.089.07-.181.092-.276a.68.68 0 0 0-.145-.427c.216-.256.4-.537.547-.839a1.008 1.008 0 0 1-.518-1.498.528.528 0 0 1-.446-.825c.097-.106.232-.174.29-.305.059-.13-.067-.407-.208-.563l-.746-.824c-.556-.625-.847-1.484-1.428-2.085a17.3 17.3 0 0 1-2.131-2.88l-2.47-3.88-.828 1.13c-.286.34-.5.734-.63 1.159a4.268 4.268 0 0 0 0 1.217c.145 2.381-.848 4.704-.872 7.085a4.37 4.37 0 0 1-.15 1.576 2.912 2.912 0 0 0-.184.485c-.026.24-.013.482.039.717a3.3 3.3 0 0 1-.833 2.634c-.427.484-1.017.848-1.153 1.454a2.49 2.49 0 0 1-.126.539c-.18.354-.697.509-.722.902 0 .223.155.446.078.654a.591.591 0 0 1-.208.243l-1.313 1.081c-1.453 1.207-1.884 3.297-2.79 4.97a8.773 8.773 0 0 0-.78 1.727c-.314 1.067-.285 2.308-1.04 3.123a2.526 2.526 0 0 0-.538.625c-.199.432.024.926.102 1.397.077.47-.146 1.105-.62 1.067a3.31 3.31 0 0 1 .387 1.716 8.868 8.868 0 0 1-5.73-.93c-.55-.231-.978-.682-1.181-1.242a.53.53 0 0 1 0-.3.858.858 0 0 1 .276-.33c1.216-1.067 1.24-2.91 1.613-4.476.329-1.387.968-2.672 1.491-4.006 1.085-2.87 1.521-6.144 3.642-8.355.485-.485 1.027-.97 1.168-1.615.077-.373 0-.756.053-1.135a.912.912 0 0 1 .625-.853 4.814 4.814 0 0 1-.557-1.61 2.238 2.238 0 0 1-.078-.737c.04-.269.108-.532.204-.786a6.947 6.947 0 0 0 .111-3.879 6.126 6.126 0 0 1-.383-1.978c.03-.345.136-.67.19-1.01a5.792 5.792 0 0 0-.107-1.779l-.359-2.22a10.807 10.807 0 0 1-.208-2.231c.073-1.804-1.1-9.025.286-10.184 1.385-1.159 5.293 3.715 7.076 3.424a8.02 8.02 0 0 1 2.383-.078c1.256.244 2.461.7 3.564 1.348l3.846 1.984c.726.434 1.495.791 2.295 1.067z" fill="#0074E4"/><path d="M40.285.916a4.302 4.302 0 0 0-3.548-.822 7.706 7.706 0 0 0-3.331 1.663 4.493 4.493 0 0 1-.934.647c-.559.248-1.236.238-1.7.628-.613.52-.534 1.459-.292 2.237.242.778.578 1.576.316 2.33a6.146 6.146 0 0 0-.267.686c-.034.446.082.89.331 1.264.185-.314.35-.639.495-.973.183-.316.558-.593.904-.486.346.107.425.486.494.817.07.331.267.69.603.725a.682.682 0 0 0 .628-.423c.385-.754-.064-1.732.311-2.49.218-.438.672-.725.865-1.173.148-.35.114-.749.227-1.114.114-.364.495-.705.855-.544.122.073.23.165.322.272a1.501 1.501 0 0 0 1.813.122c.196-.193.419-.357.663-.487a.929.929 0 0 1 .939.263c.23.255.382.568.44.905.026.463.199.907.494 1.269.147.114.314.2.494.253.43.215.95.151 1.314-.16a.96.96 0 0 0 .084-.973 7.263 7.263 0 0 0-.494-.876c-.37-.666-.286-1.522-.662-2.14a7.272 7.272 0 0 0-1.364-1.42z" fill="#3F3D56"/><path d="M41.328 17.743a.842.842 0 0 1 .059.491.791.791 0 0 1-.211.325 5.754 5.754 0 0 1-2.376 1.42.773.773 0 0 0-.334.171.65.65 0 0 0 0 .752c.162.213.276.46.334.722.044.49-.49.845-.946 1.017a2.66 2.66 0 0 1-2.033.063 3.026 3.026 0 0 1-1.073-1.026c-2.014-2.741-3.24-5.998-5.268-8.73a2.158 2.158 0 0 1-.343-.589.65.65 0 0 1 .118-.638c.216-.211.622-.211.735-.491.054-.138 0-.305.049-.447.093-.315.49-.374.75-.585.26-.211.289-.437.49-.535a.787.787 0 0 1 .69.127c.98.555 1.603 1.503 2.26 2.388a34.163 34.163 0 0 0 3.326 3.811c-.137-.137.181-1.503.407-1.6.392-.183 1.087.426 1.372.647a5.982 5.982 0 0 1 1.994 2.707z" fill="#0074E4"/><path fill="#EDEDF4" transform="rotate(167.2 24.23 44.39)" d="M4.41043122 24.5134309L44.0763942 24.4862381 44.0492014 64.2657128 4.38323838 64.2929056z"/><path d="M35.535 40.999c-1.346-6.08-7.216-9.888-13.119-8.51-.277.064-.563.144-.816.225l2.614 11.834L35.7 41.86a20.616 20.616 0 0 0-.165-.861z" fill="#00DE91"/><path d="M34.691 43.887L23.22 46.524l-2.605-11.608c-5.568 1.744-8.81 7.598-7.375 13.317 1.436 5.718 7.046 9.296 12.76 8.137 5.716-1.158 9.533-6.646 8.683-12.483h.01z" fill="#FFF"/><path d="M17.003 42.782c.538.283 1.05.608 1.531.972.483.37.818.89.946 1.471a.812.812 0 0 1-.049.504.433.433 0 0 1-.434.234.697.697 0 0 1-.273-.145 10.061 10.061 0 0 0-.975-.63c-.122-.07-.273-.145-.395-.08a.372.372 0 0 0-.136.136 1.042 1.042 0 0 0-.21.55c.047.356.26.67.58.856.316.181.588.427.795.719.056.081.075.18.054.275a.399.399 0 0 1-.142.183 2.713 2.713 0 0 1-2.13.607c-.488-.075-.976-.295-1.493-.35a3.226 3.226 0 0 1-.639-.08 1.228 1.228 0 0 1-.702-.635 3.047 3.047 0 0 1-.253-.934 10.407 10.407 0 0 1-.03-3.667.492.492 0 0 1 .088-.214.465.465 0 0 1 .21-.108c.57-.187 1.463-.682 2.082-.598.222.063.426.171.6.318.16.107.941.472.975.616z" fill="#FFDFC4"/><path d="M17.071 42.21c-.112-.555.253-2.045-.822-1.886-.126-.593.598-1.148.313-1.742-.093-.193-.299-.328-.369-.535-.2-.589.785-1.163.467-1.703-.117-.207-.378-.29-.467-.482-.233-.483.621-.941.523-1.486-.037-.179-.177-.328-.21-.512.007-.23.064-.456.168-.66.164-.57-.145-1.322.3-1.704-.328.111-.552-.371-.468-.714.084-.342.29-.68.215-1.022a1.57 1.57 0 0 1-.089-.377c0-.352.537-.482.551-.853a2.542 2.542 0 0 0-.07-.377.723.723 0 0 1 .42-.617c.24-.1.46-.243.65-.425.126-.154.262-.4.467-.333.07 0 .117.092.178.135.247.189.602 0 .813-.236.574-.74.84-1.686.738-2.63-.038-.94-.248-1.866-.253-2.802 0-.292.019-.584.056-.873.096-.291.16-.592.192-.898-.075-.53-1.042.073-1.425.218a6.027 6.027 0 0 0-1.093.482c-.363.247-.712.514-1.046.8-1.43 1.096-3.322 1.636-4.326 3.146-.332.483-.57 1.105-1.074 1.414-.237.11-.468.234-.692.371-.541.434-.467 1.283-.649 1.959-.068.182-.123.369-.163.56-.016.22.001.44.051.655l.304 1.583a61.447 61.447 0 0 0 1.868 7.859c.345.818.529 1.698.542 2.59 0 .237-.06.483-.065.714.004.281.037.56.098.835l.187 1.027c.003.086.04.166.102.222a.318.318 0 0 0 .28 0c1.341-.448 2.551-1.572 3.952-1.394" fill="#3F3D56"/><path d="M42.567 32.029c.06.016.116.05.163.097.34.33.453.883.28 1.358a.478.478 0 0 0-.042.151c.005.08.033.155.079.215a.89.89 0 0 1 .07.874c-.066.108-.179.181-.216.313-.063.22.13.43.15.66.025.307-.246.532-.492.64a.56.56 0 0 1-.592 0 .637.637 0 0 1-.117-.597c.066-.2.166-.385.292-.542-.286.06-.567-.133-.663-.454a1.107 1.107 0 0 1 .162-.918.38.38 0 0 0 .096-.215c0-.108-.091-.18-.17-.24-.338-.258-.73-1.02-.226-1.342.178-.087.37-.129.563-.123.15 0 .167.113.288.152.12.039.246-.054.375-.03z" fill="#FFDFC4"/><path d="M30.6 10.26c.348-.074.711.013.986.238.3.309.52.686.641 1.099A10.528 10.528 0 0 0 34.5 15.05m-4.8-3.883c.444-.104.904.066 1.207.446.223.35.396.738.513 1.149.376.88.914 1.66 1.58 2.288" fill="#000" opacity=".1"/></g></g></svg>