<svg width="278" height="187" xmlns="http://www.w3.org/2000/svg"><defs><linearGradient x1="50.03%" y1="99.998%" x2="50.03%" y2="-.004%" id="a"><stop stop-color="gray" stop-opacity=".25" offset="0%"/><stop stop-color="gray" stop-opacity=".12" offset="54%"/><stop stop-color="gray" stop-opacity=".1" offset="100%"/></linearGradient></defs><g transform="translate(1)" fill="none" fill-rule="evenodd"><ellipse fill="#000" fill-rule="nonzero" opacity=".034" cx="211.416" cy="166.586" rx="48.128" ry="10.775"/><ellipse fill="#000" fill-rule="nonzero" opacity=".034" cx="83.981" cy="175.406" rx="48.128" ry="10.775"/><path d="M156.679 6.713c0 39.116 24.547 70.766 54.895 70.766" opacity=".1" fill="#6C63FF" fill-rule="nonzero"/><path d="M157.28 121.011c-17.734.04-34.774-1.158-51.067-2.494-16.294-1.336-32.454-2.839-49.83-3.452-11.185-.395-23.913-.333-32.704 1.2-8.46 1.473-10.964 3.89-12.2 6.12-.93 1.677-1.384 3.438 1.89 4.964 2.261 1.06 6.166 1.93 8.924 2.939 9.59 3.51 3.642 8.03-5.868 11.659-4.46 1.703-9.676 3.336-13.06 5.134-3.384 1.798-4.808 3.831-1.451 5.593 3.329 1.746 10.914 3 19.073 3.858 16.576 1.732 35.897 2.076 54.71 2.186 41.645.244 83.398-.497 125.039-1.237 15.408-.275 30.886-.55 45.992-1.286 8.387-.409 17.025-1.008 22.995-2.295 7.583-1.634 9.195-4.282 3.76-6.173-9.116-3.17-29.748-3.925-29.748-9.173 0-4.255 21.314-11.403 21.727-15.798.276-3.018-8.522-5.944-21.727-7.23-13.85-1.35-32.785-.96-42.576 1.62-10.084 2.656-28.217 3.83-43.879 3.865z" fill="#000" fill-rule="nonzero" opacity=".034"/><path d="M237.363 7.816v129.903c0 3.864-3.73 7.016-8.332 7.016H52.708c-4.602 0-8.33-3.142-8.33-7.016V7.816c0-3.872 3.728-7.816 8.33-7.816l176.3.428c4.595 0 8.355 3.516 8.355 7.388z" fill="#FFF" fill-rule="nonzero"/><path fill="#0074E4" d="M34.6003531 41.8468742L59.4161192 41.8468742 59.4161192 37.8375934 34.6003531 37.8375934z"/><path fill="#E2EBF4" d="M29.8430457 74.4222802L31.3470315 74.4222802 31.3470315 37.8375934 29.8430457 37.8375934z"/><path fill="#0074E4" d="M34.6003531 48.1113753L63.1760838 48.1113753 63.1760838 44.1020946 34.6003531 44.1020946z"/><path fill="#0074E4" d="M34.6003531 53.8747164L53.4001759 53.8747164 53.4001759 49.8654356 34.6003531 49.8654356z"/><path fill="#0074E4" d="M34.6003531 66.1531387L38.1096533 66.1531387 38.1096533 62.1438579 34.6003531 62.1438579z"/><path fill="#0074E4" d="M40.6162964 66.1531387L49.1388827 66.1531387 49.1388827 62.1438579 40.6162964 62.1438579z"/><path d="M254.13 79.757l-.626 1.085c-1.205-.695-1.849-1.85-2.067-3.426-.158-1.145-.11-2.266.11-4.385l.03-.294c.231-2.222.284-3.148.174-4.13-.134-1.19-.533-1.95-1.292-2.388-.758-.437-1.616-.403-2.713.076-.907.395-1.682.904-3.492 2.216l-.239.173c-1.726 1.249-2.674 1.852-3.745 2.287-1.473.599-2.797.619-4.001-.076-1.205-.695-1.849-1.851-2.066-3.426-.159-1.145-.11-2.266.109-4.386l.03-.293c.232-2.222.285-3.148.174-4.131-.134-1.19-.533-1.95-1.29-2.387-.759-.437-1.617-.403-2.714.076-.907.396-1.682.904-3.492 2.216l-.239.173c-1.727 1.25-2.674 1.852-3.744 2.287-1.474.6-2.797.62-4.001-.075-1.205-.696-1.849-1.851-2.067-3.427-.158-1.144-.11-2.265.11-4.385a338.421 338.421 0 0 1 .082-.804c.378-3.705.16-5.24-1.169-6.007a.818.818 0 1 1 .82-1.418c1.204.696 1.848 1.852 2.065 3.428.158 1.144.11 2.265-.11 4.387l-.03.29c-.231 2.221-.284 3.148-.174 4.13.134 1.19.534 1.95 1.292 2.388 1.328.767 2.768.188 5.792-1.994a216.13 216.13 0 0 0 .648-.469c1.729-1.25 2.676-1.853 3.746-2.289 1.475-.6 2.798-.62 4.003.075 1.205.696 1.849 1.851 2.066 3.427.159 1.144.11 2.263-.108 4.385l-.03.293c-.233 2.221-.286 3.148-.175 4.131.133 1.19.533 1.95 1.29 2.387 1.33.767 2.77.188 5.794-1.994a216.298 216.298 0 0 0 .648-.469c1.728-1.25 2.675-1.853 3.746-2.288 1.474-.6 2.798-.62 4.003.075s1.849 1.851 2.067 3.427c.158 1.144.11 2.266-.109 4.385l-.03.293c-.232 2.223-.285 3.149-.174 4.131.134 1.19.533 1.95 1.29 2.387a.818.818 0 1 1-.818 1.418l.627-1.085a.435.435 0 1 0-.435.752c-1.148-.662-1.735-1.78-1.91-3.332-.124-1.107-.069-2.08.173-4.4l.03-.293c.418-4.04.186-5.719-1.337-6.598-1.524-.88-3.093-.241-6.388 2.143a345.465 345.465 0 0 0-.65.47c-1.594 1.151-2.527 1.74-3.52 2.138-1.343.54-2.543.554-3.633-.075-1.148-.663-1.735-1.781-1.91-3.332-.124-1.107-.069-2.083.174-4.4l.03-.293c.417-4.044.185-5.719-1.338-6.598-1.523-.879-3.091-.24-6.387 2.144a345.465 345.465 0 0 0-.65.47c-1.594 1.15-2.527 1.739-3.52 2.138-1.343.54-2.542.554-3.632-.075-1.148-.663-1.735-1.781-1.91-3.332-.125-1.108-.07-2.082.172-4.401l.03-.289c.419-4.046.187-5.722-1.336-6.6a.435.435 0 0 0 .434-.752c1.09.628 1.677 1.673 1.882 3.104.15 1.058.108 2.16-.092 4.114a214.964 214.964 0 0 1-.083.806c-.418 4.042-.186 5.719 1.337 6.598 1.523.879 3.09.241 6.384-2.142l.238-.172c1.889-1.37 2.705-1.904 3.726-2.35 1.431-.625 2.694-.675 3.842-.013 1.148.663 1.735 1.781 1.91 3.332.124 1.107.068 2.081-.173 4.4l-.03.293c-.418 4.042-.186 5.72 1.336 6.598 1.523.879 3.093.24 6.386-2.141l.237-.172c1.89-1.37 2.705-1.905 3.727-2.35 1.43-.625 2.693-.675 3.84-.013 1.149.663 1.737 1.781 1.911 3.332.125 1.107.07 2.081-.173 4.401l-.03.292c-.417 4.042-.185 5.72 1.338 6.598z" fill="#F25F46" fill-rule="nonzero"/><path d="M237.363 7.856v6.014H44.379V7.856A7.857 7.857 0 0 1 52.235 0h177.257a7.862 7.862 0 0 1 7.87 7.856z" fill="#0074E4" fill-rule="nonzero"/><ellipse fill="#FA5959" fill-rule="nonzero" opacity=".8" cx="53.726" cy="6.934" rx="2.777" ry="2.776"/><ellipse fill="#FED253" fill-rule="nonzero" opacity=".8" cx="61.805" cy="6.934" rx="2.777" ry="2.776"/><ellipse fill="#8CCF4D" fill-rule="nonzero" opacity=".8" cx="69.884" cy="6.934" rx="2.777" ry="2.776"/><path d="M97.432 80.13h-8.197" stroke="#3F3D56" stroke-width=".5"/><path d="M27.085 125.766c0 12.59 7.901 22.778 17.665 22.778" fill="#242143" fill-rule="nonzero"/><path d="M44.75 148.541c0-12.732 8.818-23.033 19.714-23.033m-30.977 1.398c0 11.958 5.039 21.635 11.263 21.635" fill="#0074E4" fill-rule="nonzero"/><path d="M44.75 148.541c0-16.267 10.192-29.43 22.785-29.43" fill="#00B4F0" fill-rule="nonzero"/><ellipse fill="#6C63FF" fill-rule="nonzero" opacity=".1" cx="43.983" cy="152.15" rx="4.392" ry="1"/><path d="M41.035 148.702s2.507-.078 3.259-.614c.752-.536 3.852-1.18 4.04-.318.188.862 3.76 4.287.935 4.31-2.825.022-6.572-.441-7.324-.9-.752-.459-.91-2.478-.91-2.478z" fill="#A8A8A8" fill-rule="nonzero"/><path d="M49.322 151.779c-2.828.022-6.57-.439-7.325-.9-.574-.348-.802-1.6-.88-2.18h-.082s.158 2.02.912 2.478c.755.459 4.497.923 7.325.9.817 0 1.098-.298 1.083-.727-.113.263-.424.424-1.033.429z" fill="#000" fill-rule="nonzero" opacity=".2"/><path d="M232.322 163.98s-.9 5.425-5.462 6.229c-4.562.804-19.788.641-19.788.641s-8.705-1.252-11.853-8.604c-3.149-7.352-5.172-10.274-2.475-10.407 2.698-.133 17.251 4.914 18.086 4.979.835.065 22.294-11.176 21.492 7.162z" fill="#65617D" fill-rule="nonzero"/><path d="M232.322 163.98s-.9 5.425-5.462 6.229c-4.562.804-19.788.641-19.788.641s-8.705-1.252-11.853-8.604c-3.149-7.352-5.172-10.274-2.475-10.407 2.698-.133 17.251 4.914 18.086 4.979.835.065 22.294-11.176 21.492 7.162z" fill="#19172F" fill-rule="nonzero" opacity=".875"/><path d="M191.491 170.016s.454 1.195 1.705 1.283c.183.013.368.003.549-.03 1.672-.29 5.59-.965 6.97-.707.833.153 2.37-.075 3.465-.28.727-.138 1.253-.266 1.253-.266s-1.283-4.26-1.446-4.4c-.163-.14-5.78-3.508-5.78-3.508l-4.46-.311a2.354 2.354 0 0 0-1.504.887c-.469.569-.872 1.504-.9 3.032-.077 3.754.148 4.3.148 4.3z" fill="#B04634" fill-rule="nonzero"/><path d="M191.491 170.016s.454 1.195 1.705 1.283a18.525 18.525 0 0 1-1.209-1.754l.023-3.115a5.484 5.484 0 0 1 1.755-4.623h-.018s-2.344.16-2.409 3.92c-.065 3.758.153 4.29.153 4.29z" fill="#000" fill-rule="nonzero" opacity=".05"/><path d="M210.792 163.208l4.144-3.243 6.517-6.422s-.704-.035-1.767-.08c-.25.168-1.003.696-1.033 1.34-.03.787-1.755.055-2.662.502-.907.446-5.289 6.084-6.061 6.043-.772-.04-1.381-.39-1.702.156l-.023.035 2.587 1.669zm-18.549-.526c.148.07.298.14.449.205 3.148 1.348 7.036 4.175 7.324 4.688.178.314 2.432 1.682 4.171 2.707.727-.138 1.254-.266 1.254-.266s-1.284-4.26-1.447-4.4c-.163-.14-5.78-3.508-5.78-3.508l-4.467-.311a2.354 2.354 0 0 0-1.504.885z" fill="#000" fill-rule="nonzero" opacity=".1"/><path d="M183.492 153.478c.42 1.027 3.92 4.976 3.92 4.976s2.217 2.892 5.365 4.24c3.148 1.348 7.034 4.175 7.324 4.688.186.331 2.695 1.842 4.462 2.88l.396.23.878.501.463.268s1.076-.864 2.149-1.734c1.072-.87 2.108-1.719 2.125-1.754.03-.095.449-1.187.351-1.253-.05-.032-.27-.478-.674-1.002a4.574 4.574 0 0 0-1.637-1.353c-1.479-.674-2.12-2.21-2.12-2.21s-.141-.1-.354-.236a4.285 4.285 0 0 0-1.446-.644c-.707-.087-2.023-1.533-2.023-1.533s-.9-.579-1.254-1.316c-.353-.736-5.319-4.124-5.78-4.443l12.077 7.756 2.89 1.857 4.146-3.243 6.518-6.422s-.878-.043-2.151-.098c-3.171-.138-8.798-.353-9.51-.193a5.379 5.379 0 0 1-1.755.115s-1.604.073-2.665-.486c-1.06-.558-2.732-.822-2.925-1.235-.193-.413-5.878-2.408-5.878-2.408s-7.74-4.11-10.505-1.669c-2.765 2.44-2.803 4.693-2.387 5.72z" fill="#242143" fill-rule="nonzero"/><path d="M208.454 129.908l1.002 3.305 1.286 7.453 4.72.32 1.369-2.255 1.363-2.255s.85-3.007 1.462-5.924c.539-2.576.892-5.077.306-5.347-.522-.25-.865-1.11-1.088-2.042a8.677 8.677 0 0 1-.078-.349 18.502 18.502 0 0 1-.313-2.395s-9.894-.514-8.523 3.566c.247.695.374 1.429.374 2.167a5.46 5.46 0 0 1-.036.551 4.623 4.623 0 0 1-1.844 3.205z" fill="#FFDFC4" fill-rule="nonzero"/><path d="M206.396 129.362l.356 5.618.802 4.786.9 2.215.802 12.123s7.745.895 9.63-.015a.835.835 0 0 0 .341-.268c2.274-3.433 1.53-13.38 1.53-13.38l.866-6.423-.579-3.333-1.396-.15-1.075-.113s-.25.298-.594.752c-.953 1.253-2.705 3.728-2.587 4.76.16 1.414-.193 2.857-.752 3.083-.559.225-1.003.611-1.09.225-.088-.386-.193-.48-.098-1.027.095-.546-.419-2.218-.419-2.218s-.867-1.957-.802-2.794c.065-.837-.095-1.796-.353-2.022-.259-.225-.61-.448-.321-1.476.288-1.027-1.266-3.02-1.266-3.02l-3.895 2.677z" fill="#00DE91" fill-rule="nonzero"/><path d="M216.628 143.397l.323 9.602 1.855 1.028a.852.852 0 0 0 .34-.266c2.274-3.436 1.53-13.384 1.53-13.384l.867-6.422-.579-3.333-1.396-.15c.539-2.576.892-5.077.306-5.347-.522-.25-.865-1.11-1.088-2.043l-1.003 6.794s.083.614.113 1.253c.04.4.014.804-.08 1.195-.226.579-.065 1.606-.065 1.606-.58 1.02-.87 2.91-1.003 4.733-.19 2.421-.12 4.734-.12 4.734z" fill="#000" fill-rule="nonzero" opacity=".1"/><path d="M218.814 122.93s1.619.2 2.133.877c.514.676 1.862.769 1.862.769s1.542.501 1.504.641c-.037.14.449.324 1.411.58.963.255 2.572 1.187 2.572 1.412 0 .226 2.55 2.73 2.55 2.987 0 .258.771 1.22.674 2.922-.098 1.702-.193 3.854.193 4.207.386.354 0 1.734 0 1.734a.947.947 0 0 0-.033 1.028c.321.579-.063 2.987-.063 2.987l.03 2.505s-.353 1.574.066 1.64c.418.064-.065.771-.065.771s-.354 1.283.097 1.862c.452.579.58 3.05.58 3.05l6.873 9.988s.097 1.829-2.088 1.799c-2.186-.03-2.154.416-2.088.834.065.419-.61.867-.61.867s-.867.449-.353 1.002c.514.554 1.99 1.8-.451 2.634a5.953 5.953 0 0 1-.707-1.285 14.53 14.53 0 0 1-.514-1.734s-.226-2.441-.674-2.757c-.449-.316-.386-1.862-.386-1.862s.644-1.252-.251-1.766-13.942-7.74-13.942-7.74l-.326-9.615s-.225-7.097 1.123-9.475c0 0-.16-1.027.065-1.606.226-.579-.032-2.44-.032-2.44l.85-6.816z" fill="#00DE91" fill-rule="nonzero"/><path d="M210.399 126.783s-3.231-.666-4.099-.215c-.867.451-2.569.802-2.827 1.06s-.897.063-1.477 1.574c-.579 1.51-.641 3.05-1.38 3.758-.74.71-1.126 1.188-1.159 1.702-.032.513.098.641-.19.804-.289.163-.707.835-.58 1.09.129.256 6.68 5.909 6.68 5.909s.324 2.152.613 2.699c.288.546-.321 8.058-.963 8.574-.642.517 4.336.466 4.336.466s.224-4.931.417-5.187c.193-.255-.128-5.512-.128-5.512s-.033-4.496.386-5.683c.418-1.188.37-5.137.37-5.137s.37-2.37.818-2.925c.449-.553-.817-2.977-.817-2.977z" fill="#000" fill-rule="nonzero" opacity=".1"/><path d="M210.291 126.686s-3.229-.664-4.096-.216c-.867.449-2.562.8-2.817 1.05-.256.25-.9.065-1.48 1.574-.578 1.508-.641 3.052-1.38 3.759-.74.706-1.123 1.187-1.156 1.701-.033.514.095.641-.193.802-.288.16-.707.834-.579 1.092.128.258 6.688 5.92 6.688 5.92s.32 2.149.611 2.695c.291.547-.323 8.061-.965 8.575-.641.514 4.337.466 4.337.466s.225-4.929.418-5.187c.193-.258-.13-5.513-.13-5.513s-.03-4.495.386-5.683c.416-1.187.356-5.15.356-5.15s.368-2.37.817-2.92c.449-.552-.817-2.965-.817-2.965z" fill="#00DE91" fill-rule="nonzero"/><path d="M209.963 123.967c.247.696.373 1.429.373 2.167a7.36 7.36 0 0 0 8.452-3.337 18.502 18.502 0 0 1-.313-2.396s-9.894-.513-8.512 3.566z" fill="#000" fill-rule="nonzero" opacity=".1"/><path d="M205.08 118.893a7.356 7.356 0 0 0 6.973 7.343 7.355 7.355 0 0 0 1.533-14.609 7.357 7.357 0 0 0-8.506 7.266z" fill="#FFDFC4" fill-rule="nonzero"/><path d="M200.357 135.912l-1.755.546s.163.642-.353.963c-.31.22-.48.586-.449.964 0 0-.193.707-.641.867-.449.16-.74 1.22-.74 1.22l-1.479 1.702s-.544.449-.448.674c.095.226-.58.288-.58.288l.336 5.719 3.054.576 1.895-.193 1.541-.576 1.349-.805.611-1.573 2.697-4.11-5.038-6.262z" fill="#00DE91" fill-rule="nonzero"/><path d="M194.351 143.587s-3.92-5.653-6.843-2.6c-2.923 3.051 1.188 7.995 2.153 7.835.965-.16 5.558-.418 5.558-.418l-.868-4.817z" fill="#EE8E9E" fill-rule="nonzero"/><path d="M186.13 132.247l17.584 8.972c.19.096.265.328.168.518l-6.89 13.495a.385.385 0 0 1-.518.168l-17.584-8.972a.385.385 0 0 1-.168-.517l6.89-13.496a.385.385 0 0 1 .519-.168z" fill="#3F3D56" fill-rule="nonzero"/><path fill="#0074E4" fill-rule="nonzero" transform="rotate(27.04 191.328 143.802)" d="M182.708805 137.308446L199.948298 137.306099 199.94653 150.294566 182.707037 150.296912z"/><ellipse fill="#E6E8EC" fill-rule="nonzero" cx="183.069" cy="139.573" rx="1" ry="1"/><ellipse fill="#E6E8EC" fill-rule="nonzero" cx="199.69" cy="148.085" rx="1" ry="1"/><path d="M191.812 144.775c-.03 4.24 8.738 5.137 8.738 5.137l2.241.356 1.003.16.418-4.144s-.458-.068-1.032-.2c-.85-.199-1.95-.542-2.181-1.02-.384-.803-9.154-4.529-9.187-.289z" fill="#FFDFC4" fill-rule="nonzero"/><path d="M205.24 117.364a.855.855 0 0 1 .539.25c.25.264.25.73.584.89.12.054.254.07.384.045.854-.12 1.348-1.085 2.168-1.35.479-.123.986-.079 1.436.125.184.056.348.16.476.303.276.356.083.88.21 1.308.176.597.888.835 1.505.912.617.078 1.31.12 1.725.587.276.354.387.81.305 1.253a.98.98 0 0 0 0 .458c.17.484 1.003.411 1.221.03.16-.275.113-.5.486-.581.27-.023.54.024.787.135.654.224 1.343.33 2.033.311a7.353 7.353 0 0 0-.957-7.78 7.358 7.358 0 0 0-12.897 3.124l-.005-.02z" fill="#000" fill-rule="nonzero" opacity=".1"/><path d="M214.567 121.935a1.002 1.002 0 0 1 0-.461 1.57 1.57 0 0 0-.306-1.253c-.413-.466-1.107-.501-1.724-.587-.617-.085-1.329-.315-1.504-.912-.128-.428.065-.952-.21-1.305a1.038 1.038 0 0 0-.477-.306 2.174 2.174 0 0 0-1.436-.125c-.82.265-1.314 1.23-2.168 1.35a.647.647 0 0 1-.384-.045c-.323-.16-.336-.626-.584-.89-.391-.413-1.13-.145-1.61-.453-.31-.2-.43-.591-.518-.95-.168-.699-.306-1.43-.14-2.13.278-1.195 1.346-2.004 2.027-3.034.637-.95 1.003-2.152 1.948-2.784.945-.631 2.18-.486 3.259-.165a9.498 9.498 0 0 0 1.526.398c.867.108 1.74-.128 2.615-.158a5.631 5.631 0 0 1 3.451 1.048c.227.148.419.343.564.571.146.323.23.67.25 1.022.104.665.335 1.303.68 1.88.268.45.61.86.852 1.328a2.05 2.05 0 0 1 .231 1.52c-.083.264-.25.502-.308.775-.143.627.27 1.225.554 1.804.273.528.402 1.118.376 1.712a2.157 2.157 0 0 1-.772 1.538 2.758 2.758 0 0 1-1.627.502 5.767 5.767 0 0 1-2.073-.319 1.585 1.585 0 0 0-.787-.135c-.374.075-.326.306-.486.581-.216.391-1.048.464-1.219-.017z" fill="#242143" fill-rule="nonzero"/><path d="M210.604 163.4l4.146-3.242 6.518-6.422s-.878-.043-2.151-.098a1.41 1.41 0 0 0-.456.877c-.03.784-1.755.055-2.662.501-.908.446-5.297 6.082-6.069 6.047-.772-.035-1.381-.391-1.702.155l-.023.035a.923.923 0 0 1-.5.291l2.9 1.857z" fill="#000" fill-rule="nonzero" opacity=".1"/><path d="M202.252 163.175l2.083 6.646.326 1.042 1.003-.27 2.185-.602 9.736-2.674a8.43 8.43 0 0 0 3.51-.934 10.641 10.641 0 0 1 6.05-1.318c1.287.12 2.718-.434 3.906-2.629 0 0 2.697-7.963-4.113-10.244-6.811-2.28-7.134 1.213-7.134 1.213l-.093.058c-.25.168-1.003.696-1.033 1.34-.03.787-1.754.055-2.662.502-.907.446-5.314 6.084-6.086 6.043-.772-.04-1.381-.39-1.702.156l-.023.035c-.238.328-.955.403-1.426.418h-.446l-.06.018-.502.148-3.519 1.052z" fill="#242143" fill-rule="nonzero"/><path d="M202.791 150.268l1.003.16.418-4.144s-.458-.068-1.032-.2c.15.575-.193 2.81-.389 4.184z" fill="#000" fill-rule="nonzero" opacity=".1"/><path d="M229.058 130.91s2.988-.866 2.256 7.613c-.732 8.48-6.266 13.84-6.266 13.84s-6.36 2.794-9.22 2.345a49.718 49.718 0 0 0-4.945-.546 7.271 7.271 0 0 0-2.893-.772c-1.604-.063-4.978-1.06-5.044-1.38-.065-.321.838-5.042.452-5.396 0 0 4.497.186 4.945.502.449.315 1.093.092 1.574 0 .482-.093 1.96-1.376 4.883-.251 0 0 1.003.095 1.382-.16.378-.256 1.002-.066 1.002-.066a2.88 2.88 0 0 0 .7-.353c.095-.128.867 0 .867 0a.341.341 0 0 0 .481-.225c.1-.264.253-.504.449-.707 0 0 .867-4.881 2.506-6.71 0 0 .482-.419.354-.933-.128-.513 2.662-7.828 6.517-6.8z" fill="#000" fill-rule="nonzero" opacity=".1"/><path d="M228.98 130.259s2.988-.867 2.256 7.613c-.731 8.48-6.266 13.84-6.266 13.84s-6.362 2.793-9.22 2.345c-2.857-.449-4.958-.547-4.958-.547a7.271 7.271 0 0 0-2.89-.771c-1.607-.063-4.978-1.06-5.043-1.381-.065-.32.834-5.042.448-5.395 0 0 4.497.185 4.949.501.45.316 1.092.09 1.574 0 .481-.09 1.96-1.378 4.883-.25 0 0 1.002.095 1.38-.16.38-.256 1.004-.066 1.004-.066a2.83 2.83 0 0 0 .696-.353c.096-.128.868 0 .868 0a.341.341 0 0 0 .48-.226c.104-.263.257-.503.452-.707 0 0 .867-4.88 2.507-6.71 0 0 .484-.419.353-.932-.13-.514 2.672-7.828 6.527-6.801z" fill="#00DE91" fill-rule="nonzero"/><path d="M205.779 162.12l4.241 5.132c.018-.015.028-.025.028-.03.032-.095.449-1.188.353-1.253-.095-.065-.834-1.671-2.313-2.345a4.384 4.384 0 0 1-1.815-1.654l-.494.15z" fill="#000" fill-rule="nonzero" opacity=".1"/><path d="M205.837 171l.463.269s1.076-.865 2.149-1.734c1.072-.87 2.108-1.719 2.125-1.754.03-.095.449-1.188.351-1.253-.05-.033-.27-.479-.674-1.002-2.878-.807-1.045 1.19-.802 1.28 0 0-3.51-.802-3.695 3.007-.025.398.003.797.083 1.188z" fill="#000" fill-rule="nonzero" opacity=".1"/><path d="M209.384 172.625l.611.353 6.2.16c.695.422 1.43.776 2.195 1.055.101.032.205.056.31.07.575.045 1.152.056 1.728.033.476 0 .842-.033.842-.033s-.293-7.818-.501-8.64c-.106-.393-.627-.305-1.138-.11a7.521 7.521 0 0 0-1.11.561s-2.635.251-3.054.484c-.418.233-1.604-.13-2.344 0-.739.13-2.055-.87-2.055-.87-3.6-1.187-1.574 1.028-1.318 1.123 0 0-3.51-.802-3.693 3.007-.183 3.809 3.327 2.807 3.327 2.807z" fill="#F25F46" fill-rule="nonzero"/><path d="M218.347 169.598c.068 1.618 1.329 3.628 2.08 4.69.477 0 .843-.032.843-.032s-.293-7.818-.501-8.64c-.106-.394-.627-.306-1.138-.11-.634 1.165-1.339 2.789-1.284 4.092z" fill="#565387" fill-rule="nonzero"/><path d="M218.347 169.598c.068 1.618 1.329 3.628 2.08 4.69.477 0 .843-.032.843-.032s-.293-7.818-.501-8.64c-.106-.394-.627-.306-1.138-.11-.634 1.165-1.339 2.789-1.284 4.092z" fill="#2D2954" fill-rule="nonzero" opacity=".398"/><path d="M217.287 169.813c.426 1.561.421 3.313 1.103 4.373.101.032.205.055.31.07.575.045 1.152.055 1.728.032.476 0 .842-.032.842-.032s-.293-7.818-.501-8.64c-.106-.394-.627-.306-1.138-.11a7.52 7.52 0 0 0-1.11.56s-1.78 1.747-1.234 3.747z" fill="#000" fill-rule="nonzero" opacity=".05"/><path d="M195.898 153.969s3.08 1.002 5.69 4.55l-5.69-4.55z" fill="#000" fill-rule="nonzero" opacity=".1"/><g opacity=".1" transform="translate(203.297 113.012)" fill="#000" fill-rule="nonzero"><path d="M17.624 2.423c0 .025 0 .048-.017.07a2.72 2.72 0 0 1-.108.268 2.03 2.03 0 0 1 .125-.338zM.201.867C.259.642.343.424.45.218a3.28 3.28 0 0 0-.047.168c-.163.699-.028 1.43.142 2.127.088.361.208.752.52.953.478.305 1.218.04 1.609.453.25.25.25.73.584.89.12.053.254.07.383.045.852-.12 1.349-1.085 2.168-1.35.48-.124.986-.08 1.437.124.184.057.348.162.476.306.273.353.083.877.208 1.306.178.596.89.832 1.504.912.614.08 1.311.12 1.725.586.276.355.388.81.305 1.253a.947.947 0 0 0 0 .459c.17.48 1.003.41 1.221.03.16-.276.11-.502.486-.584.27-.02.54.026.787.138.668.228 1.371.333 2.076.31a2.758 2.758 0 0 0 1.627-.5 1.89 1.89 0 0 0 .501-.607 2.057 2.057 0 0 1-.694 1.087 2.758 2.758 0 0 1-1.627.501 5.767 5.767 0 0 1-2.08-.33 1.585 1.585 0 0 0-.788-.136c-.373.076-.325.306-.486.582-.218.38-1.05.453-1.22-.028a1.002 1.002 0 0 1 0-.46 1.57 1.57 0 0 0-.306-1.254c-.414-.466-1.108-.501-1.725-.586-.617-.085-1.329-.316-1.504-.912-.128-.429.065-.953-.21-1.306a1.05 1.05 0 0 0-.477-.306 2.174 2.174 0 0 0-1.436-.125c-.82.266-1.316 1.23-2.168 1.35a.647.647 0 0 1-.384-.044c-.323-.16-.336-.627-.584-.89-.391-.413-1.13-.145-1.61-.453-.31-.2-.43-.592-.518-.95C.173 2.297.038 1.567.2.867z"/></g><path d="M221.42 139.58c-.589.795-1.253 1.53-1.782 2.369-.529.839-.887 1.821-.78 2.804.54-.552.785-1.316 1.126-2.005.574-1.173 1.434-2.168 2.16-3.258.139-.205 1.026-1.395.577-1.453-.37-.043-1.1 1.273-1.3 1.544z" fill="#000" fill-rule="nonzero" opacity=".1"/><path d="M109.387 165.658a8.022 8.022 0 0 0-1.86-1.044.384.384 0 0 0-.163-.043 28.613 28.613 0 0 1-3.835-3.303c.25-.2.481-.396.727-.589-1.504-.716-2.339-2.358-3.15-3.838a37.875 37.875 0 0 0-8.358-10.41c-.083-.318-.566-.25-.825-.456a.661.661 0 0 1-.183-.639c.04-.23.146-.443.203-.669.138-.528.018-1.085-.042-1.628-.06-.544-.035-1.15.326-1.556.115-.133.263-.236.376-.371.24-.323.33-.732.25-1.125a3.993 3.993 0 0 0-.25-1.14c1.228-3.342 2.455-6.689 3.682-10.041.86-2.34 1.727-4.731 1.815-7.227.07-2.005-.446-4.087-1.66-5.618.22-.053.441-.108.66-.17-1.434-1.9-1.59-4.416-1.627-6.809-.02-1.192-.061-2.386-.123-3.58.416.182.837.345 1.268.486l.401.122a13.828 13.828 0 0 0 2.883.522c-.431-1.08-.861-2.16-1.291-3.243a4.43 4.43 0 0 1-.401-1.52v-.101c0-.06 0-.12.013-.18.017-.144.05-.285.097-.422.022-.067.048-.133.078-.198.09-.197.197-.386.32-.563.091-.138.191-.27.292-.406a5.54 5.54 0 0 0 .9-1.456c.088-.268.134-.548.137-.83a4.08 4.08 0 0 0-.075-.852 6.836 6.836 0 0 0-.13-.553 13.131 13.131 0 0 0-.103-.336l-.03-.09a7.344 7.344 0 0 0-.085-.25l-.03-.086-.1-.268-.02-.053c-.48-1.23-1.116-2.403-1.505-3.668a9.67 9.67 0 0 1-.25-1.025c-.018-.088-.03-.178-.045-.266-.015-.087-.023-.15-.033-.225l-.033-.263-.022-.251c0-.08-.013-.16-.018-.25 0-.153-.015-.306-.017-.46v-.162-.348-.186c0-.115.017-.23.027-.343 0-.055 0-.11.018-.163.017-.167.04-.334.068-.501.025-.148.052-.298.082-.449.091-.411.138-.831.14-1.253 0-.08 0-.162-.017-.25s-.02-.135-.033-.2a.501.501 0 0 1 0-.06c0-.046-.022-.09-.032-.136-.01-.045-.013-.043-.02-.063-.008-.02-.028-.087-.043-.13-.015-.043-.012-.038-.02-.058a2.314 2.314 0 0 0-.055-.132l-.018-.045a3.69 3.69 0 0 0-.416-.682c-.824-1.083-2.195-1.907-2.95-3.1a6.9 6.9 0 0 1-.845-2.506c-.037-.2-.07-.4-.105-.598-.035-.198-.065-.394-.1-.59-.023-.12-.045-.25-.07-.36l-.015-.078c-.02-.095-.04-.193-.063-.288l-.015-.068c-.023-.1-.045-.2-.07-.3l-.015-.053c-.025-.105-.053-.21-.08-.316a.208.208 0 0 1 0-.037c-.03-.11-.063-.22-.096-.331v-.023c-.035-.115-.07-.228-.108-.34a9.553 9.553 0 0 0-.12-.349c-.045-.117-.088-.235-.135-.35a9.27 9.27 0 0 0-1.269-2.256c-1.148-1.473-2.922-2.53-4.762-2.46-.988.037-1.935.383-2.865.726l-2.414.89.674-.31c-.702.062-1.419.127-2.053.438-.634.31-1.17.92-1.19 1.63-.013.414.15.825.097 1.236-.088.68-.712 1.14-1.035 1.742a2.24 2.24 0 0 0-.25 1.178v.16a.22.22 0 0 0 0 .04v.08a80.023 80.023 0 0 1-3.009-1.376c-1.657-.814-3.334-1.771-4.366-3.315-.331-.5-.587-1.042-.915-1.538a12.18 12.18 0 0 0-1.254-1.504l-3.075-3.327c-.236.443.068.967.306 1.408.253.462.444.956.569 1.468.06.167.055.35-.015.514a1.003 1.003 0 0 1-.422.298 1.503 1.503 0 0 0-.634 1.722 1.905 1.905 0 0 0 1.422 1.237c.217.025.43.077.634.156.37.183.546.609.812.927.484.581 1.253.8 1.988.99 1.138 1.313 2.32 2.57 3.459 3.884 1.722 1.987 3.484 4.009 5.73 5.352.233.14.471.27.712.391 0 .04 0 .08-.013.12-.062.296-.025.605.108.877.2.319.614.414.983.479l1.7.303c-.016.22-.043.44-.083.657-.023.132-.05.263-.076.396l-.03.17v.025c0 .008 0 .09-.017.138-.018.047 0 .032 0 .047V87.796c.057.666.501 1.218.945 1.726l.238.288a4.009 4.009 0 0 0-.775 1.624c-.075.372-.112.75-.11 1.13-.227.217-.4.485-.501.782-.12.41-.163.84-.13 1.266v.5c-.03.6.07 1.197.29 1.755.023.045.048.085.07.128-.376.736-1.002 1.31-1.451 2.004a4.349 4.349 0 0 0 .399 4.982c.343.396.784.777.824 1.303-.006.238-.03.476-.07.711-.04.567.22 1.103.361 1.652.118.456.123 1.002-.138 1.368a2.004 2.004 0 0 0-.343 1.313c.128.709-.166 1.418-.216 2.137-.022.309 0 .622-.027.93a5.238 5.238 0 0 1-.183.872c0 .03-.015.063-.025.095-.62.273-1.234.557-1.825.885-.32.142-.584.385-.752.691-.1.308-.114.637-.04.953l.533 3.713-.092-.04c.042.608.085 1.219.13 1.832.033.463.075.955.351 1.325.14.15.267.312.379.484.21.426-.04.922-.226 1.358-.186.436-.25 1.055.158 1.29.213.149.443.272.684.366-.501 2.09-.04 4.28.426 6.378l1.07 4.806c.14.68.22 1.37.236 2.065v.3c.05.955.219 1.899.502 2.812.556 1.874.022 4.124.198 6.167.116.982.312 1.953.586 2.904 1.21 4.801 2.291 9.507 2.707 14.443a3.63 3.63 0 0 0 1.735 1.21c-.05.607.017 1.301 0 1.654 0 .293-.046.584-.135.862-.213.557-.752.92-1.311 1.116-.176.06-.354.107-.534.15l.2-.17a4.478 4.478 0 0 0-3.336.586 1.32 1.32 0 0 0-.66.777c-.04.318.042.64.231.9a4.103 4.103 0 0 0 2.319 1.646c.933.245 1.892.379 2.857.398l1.77.103a.486.486 0 0 0 .115.629c.19.138.415.22.65.235a8.275 8.275 0 0 0 2.183.033.855.855 0 0 0 .501-.18.323.323 0 0 0 0-.48.529.529 0 0 0 .482-.35c.069-.204.091-.42.065-.634-.048-.824-.12-2.022-.55-2.756a.7.7 0 0 0-.774-.341 30.06 30.06 0 0 1-.501-4.446c.442-.165.872-.36 1.288-.58-1.23-1.988-1.253-4.511-.877-6.822.15-.73.259-1.466.328-2.207.083-1.479-.14-3.153-.96-4.375a15.657 15.657 0 0 1 3.91 3.538c1.733 2.255 2.788 4.986 4.911 6.866.28-.273.562-.543.847-.812.448.758.872 1.533 1.271 2.323.314.58.56 1.195.737 1.831a8.47 8.47 0 0 1 .068 2.955c-.059.521-.13 1.04-.213 1.556-.034.22-.085.439-.153.651a.45.45 0 0 0-.048-.195c-.133-.233-.501-.128-.702.033-.357.267-.652.61-.864 1.002a1.08 1.08 0 0 0-.156.639c.066.273.25.502.502.626.93.544 2.098.15 3.095-.25.276-.1.539-.232.782-.394.502-.36.775-.954 1.274-1.305.266-.146.523-.309.77-.486.463-.424.5-1.138.839-1.674.562-.925 1.817-1.163 2.309-2.143.569-1.082-.096-2.448-.953-3.155z" fill="url(#a)" fill-rule="nonzero" transform="matrix(-1 0 0 1 175.046 0)"/><path d="M87.269 170.069c.001.29.048.577.138.852.21.548.752.907 1.308 1.1.557.193 1.148.25 1.715.418.249.057.479.176.669.346.501.501.2 1.403-.386 1.777-.587.373-1.334.36-2.03.313a26.752 26.752 0 0 1-4.392-.624c-.521-.123-1.13-.363-1.213-.892a1.463 1.463 0 0 1 .04-.501c.356-1.794.544-3.617.564-5.445 0-.12 2.908-.198 3.178-.023.607.398.376 2.062.409 2.679z" fill="#FDAE83" fill-rule="nonzero"/><path d="M74.304 163.686c-.48.797-.933 1.61-1.356 2.439a8.63 8.63 0 0 0-.737 1.806 8.301 8.301 0 0 0-.067 2.914c.058.513.13 1.025.215 1.537.083.5.216 1.07.645 1.358-.387.23-.858.27-1.279.112a3.682 3.682 0 0 1-1.125-.689c-2.149-1.771-3.76-4.345-3.84-7.129a1.13 1.13 0 0 1 .117-.631c.102-.136.23-.25.376-.336a28.887 28.887 0 0 0 4.445-3.731.544.544 0 0 1 .325-.208c.103 0 .204.03.291.083.825.413 2.204 1.002 2.547 1.942a1.313 1.313 0 0 0-.557.533z" fill="#FDAE83" fill-rule="nonzero"/><path d="M84.331 172.978c1.805.752 3.76 1.022 5.713 1.28.25.03.519.05.684-.125a.521.521 0 0 0 .045-.586 1.529 1.529 0 0 0-.418-.461L89.059 172a4.513 4.513 0 0 1 3.293.566c.31.154.546.424.657.752.042.315-.04.634-.23.89a4.096 4.096 0 0 1-2.317 1.623c-.933.242-1.891.374-2.855.393l-1.754.1a.473.473 0 0 1-.118.622c-.19.14-.417.222-.652.238a8.36 8.36 0 0 1-2.18.03.835.835 0 0 1-.502-.178.316.316 0 0 1 0-.47.529.529 0 0 1-.481-.35 1.45 1.45 0 0 1-.066-.623c.048-.812.12-2.005.55-2.714.428-.709 1.32-.153 1.927.098z" fill="#3F3D56" fill-rule="nonzero"/><path d="M65.704 165.814a8.065 8.065 0 0 1 1.86-1.03.22.22 0 0 1 .336.085 19.074 19.074 0 0 1 2.74 5.28c.358 1.077.641 2.225 1.368 3.097.096.115.251.233.381.165.188-.095.073-.398.178-.58.13-.231.487-.126.7.032.358.266.653.608.862 1.002.12.187.175.408.155.629a.927.927 0 0 1-.488.616c-.93.54-2.098.15-3.094-.25a3.54 3.54 0 0 1-.78-.389c-.5-.353-.774-.942-1.273-1.285a7.337 7.337 0 0 1-.77-.481c-.46-.419-.5-1.123-.836-1.654-.562-.91-1.818-1.145-2.309-2.112-.549-1.08.113-2.429.97-3.125z" fill="#3F3D56" fill-rule="nonzero"/><path d="M79.694 115.76c-1.97 1.479-2.798 4.107-2.71 6.568.088 2.46.953 4.821 1.81 7.13 1.228 3.302 2.455 6.604 3.68 9.905a4.083 4.083 0 0 0-.251 1.127c-.079.388.013.791.25 1.108.116.133.251.235.377.366.36.4.383 1.002.325 1.536-.057.533-.18 1.085-.042 1.606.058.223.163.433.203.659a.654.654 0 0 1-.183.631c-.25.2-.752.136-.825.451a37.454 37.454 0 0 0-8.347 10.274c-.812 1.461-1.632 3.08-3.148 3.786a54.96 54.96 0 0 1 4.244 3.732c2.118-1.855 3.173-4.553 4.903-6.766a15.54 15.54 0 0 1 3.905-3.49c-.82 1.205-1.043 2.858-.96 4.314.07.732.179 1.459.328 2.178.389 2.28.354 4.76-.877 6.73 1.313.682 2.822 1.188 4.289.985A3.65 3.65 0 0 0 89 167.257c.416-4.871 1.504-9.522 2.705-14.25.275-.944.47-1.908.584-2.884.175-2.005-.359-4.235.2-6.085.282-.899.45-1.83.501-2.771v-.298c.018-.684.096-1.365.236-2.035l1.068-4.74c.466-2.073.932-4.233.429-6.295.24-.093.469-.213.681-.359.409-.233.344-.842.158-1.273-.185-.43-.433-.92-.225-1.34.11-.171.237-.332.378-.479.276-.366.319-.85.351-1.305l.13-1.81c-.756.3-1.386.852-1.784 1.561.987-1.528.501-3.708-.228-5.377a2.451 2.451 0 0 0-2.301-1.822c-4.019-.686-8.927-2.388-12.19.065z" fill="#FFC550" fill-rule="nonzero"/><path d="M81.526 126.05s1.975 1.317 1.975 2.305c0 .987.502 9.872.502 9.872v6.265s-.329 3.293 0 4.115c.328.821 0 4.608 0 5.101 0 .494-.502-5.101-.502-5.101v-5.934L83 129.177l-1.474-3.128z" fill="#000" fill-rule="nonzero" opacity=".1"/><path d="M92.543 80.409l1.15-.449c2.352-.942 4.705-1.887 6.981-2.992 1.655-.804 3.332-1.754 4.362-3.27.33-.501.586-1.027.915-1.52.377-.529.796-1.026 1.253-1.487l3.073-3.282c.236.438-.065.954-.306 1.388a6.013 6.013 0 0 0-.569 1.45.671.671 0 0 0 .018.502c.11.134.255.236.419.295a1.47 1.47 0 0 1 .634 1.697 1.892 1.892 0 0 1-1.419 1.223c-.217.025-.43.076-.634.153-.371.182-.547.601-.812.914-.484.574-1.254.792-1.986.977-1.138 1.296-2.318 2.536-3.456 3.832-1.72 1.96-3.48 3.954-5.725 5.282a8.386 8.386 0 0 1-2.585 1.037 41.855 41.855 0 0 0-1.313-5.75z" fill="#A1616A" fill-rule="nonzero"/><path d="M92.543 80.409l1.15-.449c2.352-.942 4.705-1.887 6.981-2.992 1.655-.804 3.332-1.754 4.362-3.27.33-.501.586-1.027.915-1.52.377-.529.796-1.026 1.253-1.487l3.073-3.282c.236.438-.065.954-.306 1.388a6.013 6.013 0 0 0-.569 1.45.671.671 0 0 0 .018.502c.11.134.255.236.419.295a1.47 1.47 0 0 1 .634 1.697 1.892 1.892 0 0 1-1.419 1.223c-.217.025-.43.076-.634.153-.371.182-.547.601-.812.914-.484.574-1.254.792-1.986.977-1.138 1.296-2.318 2.536-3.456 3.832-1.72 1.96-3.48 3.954-5.725 5.282a8.386 8.386 0 0 1-2.585 1.037 41.855 41.855 0 0 0-1.313-5.75z" fill="#FFAF84" fill-rule="nonzero"/><path d="M94.648 86.951c.369-.065.782-.155.983-.47a1.32 1.32 0 0 0 .108-.865 24.24 24.24 0 0 0-1.254-5.538c-.559 1.035-1.659 1.639-2.702 2.182-.93.518-1.901.96-2.902 1.323.25-.08.864 3.774 1.21 4.01.436.305 1.49-.108 1.973-.19l2.584-.452z" fill="#F25F46" fill-rule="nonzero"/><ellipse fill="#FFC4A5" fill-rule="nonzero" transform="matrix(-1 0 0 1 183.958 0)" cx="91.979" cy="80.546" rx="5.269" ry="5.267"/><path d="M93.05 84.907s-3.458 2.961-1.976 4.936c1.481 1.975 2.306 3.293.33 3.458-1.974.165-8.56-3.293-8.56-3.293s6.092-4.936 5.104-7.898c-.987-2.962 5.101 2.797 5.101 2.797z" fill="#FBBEBE" fill-rule="nonzero"/><path d="M89.733 89.542a4.088 4.088 0 0 1 3.025 3.042c.389 1.774-.436 3.759.341 5.393.366.777 1.046 1.358 1.504 2.087a4.259 4.259 0 0 1-.396 4.914c-.343.39-.784.77-.824 1.285.005.236.029.47.07.702.04.559-.22 1.09-.361 1.631-.118.449-.123.988.138 1.349.263.378.383.836.34 1.295-.125.702.168 1.4.219 2.11.022.306 0 .611.027.917.037.291.097.578.18.86l.442 1.626c-2.392 1.022-4.933 1.39-7.52 1.343-2.316-.045-4.6-.524-6.866-1.002-.69-.146-1.378-.291-2.058-.48 1.434-1.873 1.587-4.357 1.627-6.715.063-3.93.356-7.855.88-11.752-.694-1.31-1.003-2.771-1.289-4.227a7.147 7.147 0 0 1-.16-1.787c.07-1.253.647-2.443 1.21-3.578.517-1.037 1.076-2.13 2.227-2.578a1.77 1.77 0 0 1 1.712.187c.87.657.611 1.79.834 2.757.294 1.253 1.45 2.152 2.68 2.506.919.24 1.87.33 2.817.263a.501.501 0 0 0 .356-.822c-.403-.446-.81-.9-1.155-1.326z" fill="#F25F46" fill-rule="nonzero"/><path d="M85.652 109.902c1.95 1.594 3.923 3.202 6.174 4.33 1.32.661 2.725 1.15 4.01 1.862.318.14.582.379.753.681.102.303.116.63.04.94l-.572 3.94c-.158 1.067-1.183 1.753-2.005 2.435.045-.359.118-.637-.053-.955-.059-.1-.123-.196-.193-.288-.35-.531-.363-1.22-.278-1.852.085-.631.25-1.253.218-1.9a.621.621 0 0 0-.266-.55c-2.8-1.346-5.815-2.379-8.645-3.657a9.163 9.163 0 0 1-2.098-1.19 3.227 3.227 0 0 1-1.218-2.022.396.396 0 0 1 .05-.308.419.419 0 0 1 .213-.125c1.268-.462 2.607-.885 3.87-1.341z" fill="#FFAF84" fill-rule="nonzero"/><path d="M91.069 93.374c.967.163 1.985.664 2.314 1.59.118.407.162.832.13 1.254.03.593-.07 1.186-.293 1.736-.165.304-.362.59-.587.852-2.316 2.967-3.48 6.693-5.735 9.708-.2.265-.567.611-.454.924.041.082.077.165.108.25a.501.501 0 0 1-.166.44 1.07 1.07 0 0 0-.273.398c-.042.158.063.363.226.35-.27.838-1.1 1.326-1.888 1.722-1.308.66-2.757 1.178-4.213 1.035-.274-1.095-.655-2.333-.502-3.448.16-.851.443-1.675.84-2.446l.98-2.14c.835-1.826 1.677-3.666 2.84-5.302a8.018 8.018 0 0 0 1.05-1.691c.299-.775 1.118-1.318 1.615-1.982.737-1.003 1.504-2.005 2.491-2.73.396-.305 1.033-.6 1.517-.52z" fill="#000" fill-rule="nonzero" opacity=".1"/><path d="M91.069 92.88c.967.163 1.985.664 2.314 1.589.117.406.161.83.13 1.253.03.593-.07 1.186-.293 1.736-.165.304-.362.59-.587.852-2.316 2.967-3.48 6.693-5.735 9.708-.2.265-.567.611-.454.924.041.081.077.165.108.25a.501.501 0 0 1-.166.44 1.07 1.07 0 0 0-.273.398c-.042.158.063.363.226.35-.27.837-1.1 1.326-1.888 1.722-1.308.659-2.757 1.178-4.213 1.035-.274-1.095-.655-2.333-.502-3.448.16-.852.443-1.675.84-2.446l.98-2.14c.835-1.826 1.677-3.666 2.84-5.302a7.978 7.978 0 0 0 1.05-1.694c.299-.772 1.118-1.315 1.615-1.98.737-1.002 1.504-2.004 2.491-2.728.396-.303 1.033-.6 1.517-.519z" fill="#F25F46" fill-rule="nonzero"/><path d="M93.277 71.894c.7.06 1.419.125 2.05.43.632.307 1.171.908 1.191 1.61 0 .408-.15.814-.097 1.217.087.672.711 1.126 1.032 1.72.562 1.032.126 2.345-.601 3.257-.727.912-1.712 1.614-2.46 2.52a6.513 6.513 0 0 0-1.358 5.243c.093.357.137.726.133 1.095-.058.657-.501 1.2-.943 1.701a78.604 78.604 0 0 0-5.945 7.909 21.365 21.365 0 0 0-1.464 2.506c-.426.897-.752 1.854-1.344 2.648a6.995 6.995 0 0 1-1.972 1.692 13.935 13.935 0 0 1-6.317 2.037l1.29-3.2c.229-.569.464-1.168.39-1.777-.144-1.152-1.307-1.91-1.685-3.007-.25-.706-.138-1.486.067-2.205.457-1.621 1.37-3.08 1.86-4.69a9.519 9.519 0 0 0 .281-4.363c-.108-.642-.283-1.286-.203-1.93.238-1.96 2.537-2.896 3.6-4.558.686-1.067.82-2.383 1.05-3.63.333-1.822.927-3.642 2.075-5.095 1.148-1.453 2.918-2.506 4.763-2.428.988.038 1.933.38 2.863.717l2.416.88" fill="#3F3D56" fill-rule="nonzero"/><g opacity=".1" transform="matrix(-1 0 0 1 97.907 75.106)" fill="#000" fill-rule="nonzero"><path d="M15.416.88c.208 1.125.338 2.305.865 3.31-.073-.391-.133-.785-.206-1.17a14.59 14.59 0 0 0-.807-2.872c.063.243.105.486.148.732zm4.447 10.118a9.567 9.567 0 0 0 .28 4.365c.118.383.251.752.411 1.128a9.536 9.536 0 0 1-.032-3.353c.108-.642.283-1.286.203-1.93a3.006 3.006 0 0 0-.652-1.503c-.037.436-.138.864-.21 1.293zm2.8 11.193c-.14-.47-.307-.932-.502-1.383.085.484.052.98-.095 1.449-.379 1.095-1.544 1.854-1.684 3.006-.076.61.157 1.208.388 1.777.085.213.17.429.25.642a2.064 2.064 0 0 1 0-.279c.144-1.152 1.307-1.909 1.685-3.007.27-.706.163-1.485-.042-2.205zm-6.911 6.012a7.018 7.018 0 0 1-1.973-1.694c-.594-.794-.92-1.754-1.346-2.649a21.13 21.13 0 0 0-1.464-2.506 78.704 78.704 0 0 0-6.171-8.179c-.052.232-.071.47-.058.707.058.657.501 1.2.943 1.702a78.604 78.604 0 0 1 5.945 7.908 21.365 21.365 0 0 1 1.464 2.506c.426.897.752 1.854 1.344 2.648a6.995 6.995 0 0 0 1.972 1.692 13.935 13.935 0 0 0 6.317 2.037l-.877-2.155a13.95 13.95 0 0 1-6.096-2.017zM2.855 5.413C2.103 4.505 1.123 3.816.396 2.894a5.55 5.55 0 0 1-.19-.265c-.015.877.286 1.73.85 2.403.726.924 1.711 1.613 2.458 2.52.292.353.544.736.752 1.143a6.514 6.514 0 0 0-1.41-3.282z"/></g><g transform="translate(101.528 30.821)" fill-rule="nonzero"><path d="M35.823.877H.828A.438.438 0 0 1 .459.689a.339.339 0 0 1 0-.376.438.438 0 0 1 .369-.188h34.995c.234 0 .424.169.424.376s-.19.376-.424.376zm38.1 4.51H18.875c-.235 0-.425-.168-.425-.375 0-.208.19-.376.425-.376h55.048c.152 0 .292.071.368.188a.339.339 0 0 1 0 .376.438.438 0 0 1-.368.187zm-38.1 4.761H.826c-.235 0-.425-.168-.425-.375 0-.208.19-.376.425-.376h34.995c.235 0 .425.168.425.376 0 .207-.19.375-.425.375zm38.1 0H38.928c-.235 0-.425-.168-.425-.375 0-.208.19-.376.425-.376h34.995c.235 0 .425.168.425.376 0 .207-.19.375-.425.375zm-37.85 4.51H1.077c-.234 0-.424-.167-.424-.375s.19-.376.424-.376h34.996c.234 0 .425.168.425.376s-.19.376-.425.376zm0 4.762H1.077c-.234 0-.424-.168-.424-.376s.19-.376.424-.376h34.996c.234 0 .425.168.425.376s-.19.376-.425.376zM51.868.877h-9.936c-.233 0-.421-.168-.421-.376 0-.207.188-.376.42-.376h9.937c.233 0 .421.169.421.376 0 .208-.188.376-.42.376zm0 13.782h-9.936c-.233 0-.421-.168-.421-.376s.188-.376.42-.376h9.937c.233 0 .421.168.421.376s-.188.376-.42.376zm0 4.761h-9.935a.433.433 0 0 1-.366-.188.341.341 0 0 1 0-.376.433.433 0 0 1 .366-.188h9.935c.15 0 .29.072.365.188a.341.341 0 0 1 0 .376.433.433 0 0 1-.365.188zm16.794 0h-9.936c-.233 0-.42-.169-.42-.376s.187-.375.42-.376h9.936c.15 0 .29.072.365.188a.341.341 0 0 1 0 .376.433.433 0 0 1-.365.188zM10.759 5.387H.823c-.233 0-.421-.168-.421-.375 0-.208.188-.376.421-.376h9.936c.233 0 .421.168.421.376 0 .207-.188.375-.42.375zm25.063 63.898H.827c-.235 0-.425-.168-.425-.375 0-.208.19-.376.425-.376h34.995c.235 0 .425.168.425.376 0 .207-.19.375-.425.375zm-.25 9.522H.576c-.235 0-.425-.168-.425-.375 0-.208.19-.376.425-.376h34.996c.234 0 .424.168.424.376 0 .207-.19.375-.424.375zm.25 4.51H.826a.438.438 0 0 1-.368-.187.339.339 0 0 1 0-.376.438.438 0 0 1 .368-.188h34.994c.152 0 .293.071.369.188a.339.339 0 0 1 0 .376.438.438 0 0 1-.369.188zm14.793-4.51H40.68c-.233 0-.421-.168-.421-.375 0-.208.188-.376.42-.376h9.937c.233 0 .421.168.421.376 0 .207-.188.375-.42.375zm0 4.51H40.68c-.233 0-.421-.167-.421-.375s.188-.376.42-.376h9.937c.233 0 .421.168.421.376s-.188.376-.42.376zm16.795-4.51h-9.937c-.232 0-.42-.168-.42-.375 0-.208.188-.376.42-.376h9.937c.232 0 .42.168.42.376 0 .207-.188.375-.42.375zm6.764-4.76H19.125c-.234 0-.425-.169-.425-.376 0-.208.19-.376.425-.376h55.049c.234 0 .425.168.425.376 0 .207-.19.375-.425.375zm-63.415 0H.823c-.233 0-.421-.169-.421-.376 0-.208.188-.376.421-.376h9.936c.233 0 .421.168.421.376 0 .207-.188.375-.42.375zm63.415 14.032H19.126a.438.438 0 0 1-.369-.188.339.339 0 0 1 0-.376.438.438 0 0 1 .37-.188h55.047c.234 0 .425.168.425.376s-.19.376-.425.376zm-63.415 0H.824a.433.433 0 0 1-.366-.188.341.341 0 0 1 0-.376.433.433 0 0 1 .366-.188h9.935c.15 0 .29.071.365.188a.341.341 0 0 1 0 .376.433.433 0 0 1-.365.188z" fill="#7B8D9E"/><path fill="#00B4F0" d="M27.3274341 30.6960557L13.6871262 44.1020882 27.3274341 57.5081206 30.3964371 54.4536293 20.0811033 44.1868828 30.4816346 33.8353417z"/><path fill="#00B4F0" d="M47.4223719 30.6960557L61.0626798 44.1020882 47.4223719 57.5081206 44.3533688 54.4536293 54.6688919 44.1868828 44.2681714 33.8353417z"/></g></g></svg>