<svg width="95" height="70" xmlns="http://www.w3.org/2000/svg"><g fill="none" fill-rule="evenodd"><g transform="translate(16.665)"><path d="M30.896 69.942l-.003.048-25.23-7.338L0 0h30.893l.003.047V0H61.79l-5.663 62.652-25.23 7.338v-.048z" fill="#0096FF"/><path fill="#00B8FF" transform="matrix(-1 0 0 1 87.361 0)" d="M30.8962868 5.12217543L56.4649255 5.12217543 56.4649255 64.9861199 35.7655983 59.0699726z"/></g><g transform="translate(0 16.442)" fill="#FFF" fill-rule="nonzero"><path d="M69.9174693 29.175323L72.6618596 22.2793437 80.5859887 22.2793437 76.8254098 11.8185147 81.5286885 0.0000255499275 95 35.5408014 85.0653945 35.5408014 82.7633965 29.175323z"/><path d="M61.4419314 35.5408981L75.8632428 0.0000757271848 66.3024078 0.000122953368 56.4373975 22.967399 49.4223873 0.000170179067 42.0734657 0.000170179067 34.5412116 22.967399 29.2292905 12.5016857 24.4222029 27.2174991 29.3028279 35.5408981 38.7118673 35.5408981 45.5184324 14.9442142 52.0081199 35.5408981z"/><path d="M9.075 23.34h5.89c1.783 0 3.372-.198 4.765-.593l1.523-4.662 4.256-13.03c-.324-.511-.694-.994-1.11-1.45C22.212 1.203 19.015 0 14.805 0H0v35.54h9.075v-12.2zM16.87 8.177c.854.853 1.28 1.996 1.28 3.427 0 1.442-.375 2.586-1.125 3.431-.823.94-2.339 1.41-4.546 1.41H9.075v-9.55h3.429c2.057 0 3.513.428 4.366 1.282z"/></g></g></svg>