<svg width="172" height="40" xmlns="http://www.w3.org/2000/svg"><g fill="#FFF"><path d="M171.718 20.262a2.277 2.277 0 0 0-1.373-2.117h-.09L155.17 9.984a2.619 2.619 0 0 0-3.574.969c-.227.398-.343.85-.337 1.308a2.521 2.521 0 0 0 .479 1.53c.321.445.778.775 1.304.94l10.418 5.566-10.407 5.554a2.551 2.551 0 0 0-1.311.937 2.525 2.525 0 0 0-.483 1.533 2.581 2.581 0 0 0 1.29 2.27 2.615 2.615 0 0 0 2.62.007l15.084-8.116h.069a2.284 2.284 0 0 0 1.406-2.128l-.011-.092zm-22.403-.01c0-.55-.22-1.077-.61-1.466a2.085 2.085 0 0 0-1.471-.607h-.504a1.982 1.982 0 0 1-1.39-.58 1.963 1.963 0 0 1-.576-1.389V5.59a5.02 5.02 0 0 0-1.48-3.573 5.07 5.07 0 0 0-3.586-1.48h-3.9a1.949 1.949 0 0 0-1.905 1.442 1.933 1.933 0 0 0 .945 2.189c.289.162.616.249.949.25h1.223c.525 0 1.028.207 1.4.577.37.369.579.87.579 1.392v9.63c0 .993.357 1.954 1.007 2.708.65.754 1.55 1.251 2.537 1.4.34.064.684.098 1.03.103v.091c-.346.006-.69.04-1.03.103a4.178 4.178 0 0 0-2.537 1.4 4.142 4.142 0 0 0-1.007 2.709v9.618c0 .522-.21 1.023-.58 1.393-.371.369-.874.576-1.399.576h-1.223a1.95 1.95 0 0 0-.95.25 1.933 1.933 0 0 0 .96 3.631l3.9.001a5.084 5.084 0 0 0 3.587-1.481 5.048 5.048 0 0 0 1.48-3.573v-10.62c0-.52.206-1.02.575-1.388a1.982 1.982 0 0 1 1.391-.581h.504c.552 0 1.081-.218 1.471-.607.39-.388.61-.915.61-1.465v-.034zM58.561 9.231a11.332 11.332 0 0 0-5.015 1.152 11.276 11.276 0 0 0-3.98 3.247 11.183 11.183 0 0 0-1.933 9.788 11.218 11.218 0 0 0 2.448 4.506 11.286 11.286 0 0 0 4.204 2.955 11.336 11.336 0 0 0 9.994-.749 2.898 2.898 0 0 0 1.368 1.323 2.917 2.917 0 0 0 3.506-.827c.406-.51.626-1.143.626-1.793v-8.367c0-2.967-1.18-5.815-3.281-7.92a11.314 11.314 0 0 0-7.937-3.314zm0 16.665a5.473 5.473 0 0 1-3.03-.915 5.435 5.435 0 0 1-2.01-2.437 5.406 5.406 0 0 1 1.183-5.917 5.478 5.478 0 0 1 5.945-1.177 5.45 5.45 0 0 1 2.448 2 5.411 5.411 0 0 1-.679 6.856 5.457 5.457 0 0 1-3.857 1.59zM21.967 12.1a2.883 2.883 0 0 0-.658-1.757 2.918 2.918 0 0 0-3.475-.786 2.899 2.899 0 0 0-1.357 1.302l-5.386 11.224L5.705 10.86v-.056l-.08-.148-.069-.114-.08-.114-.091-.125-.103-.091-.115-.126-.08-.08-.125-.113-.15-.068-.113-.091-.07-.092h-.113l-.15-.08h-.09l-.172-.068H2.33l-.194.057h-.08l-.206.08-.24.011h-.08l-.149.126-.091.068-.126.102-.092.08-.103.114-.08.091-.102.125-.08.091-.103.148v.08l-.138.17v.069l-.08.193v.069l-.148.193v1.81l.08.182 8.005 16.63c.226.507.593.938 1.058 1.242a2.916 2.916 0 0 0 3.14.034 2.897 2.897 0 0 0 1.085-1.219l8.005-16.687c.213-.385.334-.813.355-1.252zm11.687-2.868a11.331 11.331 0 0 0-5 1.177 11.276 11.276 0 0 0-3.958 3.262 11.184 11.184 0 0 0-1.893 9.78 11.22 11.22 0 0 0 2.457 4.492 11.289 11.289 0 0 0 4.202 2.942 11.335 11.335 0 0 0 9.978-.755 2.898 2.898 0 0 0 1.369 1.323 2.917 2.917 0 0 0 3.506-.827c.405-.51.626-1.143.626-1.793v-8.367c0-2.98-1.19-5.837-3.306-7.944a11.314 11.314 0 0 0-7.981-3.29zm0 16.664a5.473 5.473 0 0 1-3.028-.92 5.435 5.435 0 0 1-2.004-2.44 5.406 5.406 0 0 1 1.19-5.913 5.478 5.478 0 0 1 5.943-1.172 5.45 5.45 0 0 1 2.447 2 5.412 5.412 0 0 1-.684 6.859 5.457 5.457 0 0 1-3.864 1.586zm60.838-6.01V3.815c0-.767-.306-1.503-.85-2.045a2.91 2.91 0 0 0-4.109 0 2.887 2.887 0 0 0-.85 2.045v6.83a11.33 11.33 0 0 0-11.272.199 11.259 11.259 0 0 0-4.057 4.175 11.194 11.194 0 0 0 .178 11.22 11.264 11.264 0 0 0 4.187 4.046 11.328 11.328 0 0 0 11.273-.154 2.9 2.9 0 0 0 1.367 1.323 2.918 2.918 0 0 0 3.507-.827c.405-.51.626-1.143.626-1.793v-8.4c0-.194.012-.365 0-.547zM83.217 25.92a5.472 5.472 0 0 1-3.031-.915 5.436 5.436 0 0 1-2.01-2.437 5.407 5.407 0 0 1 1.183-5.917 5.478 5.478 0 0 1 5.945-1.177 5.45 5.45 0 0 1 2.448 2c.6.892.92 1.942.92 3.016a5.418 5.418 0 0 1-1.602 3.82 5.467 5.467 0 0 1-3.842 1.587l-.011.023zM101.96 6.706a2.898 2.898 0 0 0 2.905-2.891c0-1.597-1.3-2.892-2.905-2.892a2.898 2.898 0 0 0-2.905 2.892c0 1.596 1.3 2.89 2.905 2.89zm.057 2.527c-.77 0-1.51.304-2.054.847a2.887 2.887 0 0 0-.85 2.044v16.698a2.874 2.874 0 0 0 .85 2.045 2.906 2.906 0 0 0 2.054.846 2.916 2.916 0 0 0 2.053-.846 2.892 2.892 0 0 0 .852-2.045V12.124c0-.767-.307-1.502-.852-2.044a2.91 2.91 0 0 0-2.053-.847zm19.143.626a8.934 8.934 0 0 0-5.534 1.912 2.889 2.889 0 0 0-1.029-1.864 2.913 2.913 0 0 0-3.966.242 2.885 2.885 0 0 0-.792 1.975v16.698c0 .767.306 1.502.851 2.045a2.91 2.91 0 0 0 4.107 0 2.884 2.884 0 0 0 .851-2.045v-8.787c0-1.143.456-2.239 1.268-3.047a4.339 4.339 0 0 1 6.121 0 4.298 4.298 0 0 1 1.268 3.047v8.787c0 .767.306 1.502.85 2.045a2.912 2.912 0 0 0 4.109 0 2.884 2.884 0 0 0 .85-2.045V18.75a8.895 8.895 0 0 0-2.63-6.288 8.977 8.977 0 0 0-6.324-2.602z"/></g></svg>